<?xml version="1.0" encoding="utf-8"?>
<!-- Generator: Adobe Illustrator 25.4.6, SVG Export Plug-In . SVG Version: 6.00 Build 0)  -->
<svg version="1.1" id="Layer_1" xmlns="http://www.w3.org/2000/svg" xmlns:xlink="http://www.w3.org/1999/xlink" x="0px" y="0px"
	 viewBox="0 0 112.8 81" style="enable-background:new 0 0 112.8 81;" xml:space="preserve">
<style type="text/css">
	.st0{fill:#4EA1FF;stroke:#4EA1FF;stroke-width:4;stroke-miterlimit:10;}
</style>
<g id="Layer_2_00000142860211809297786080000015063835176818346401_">
	<g id="Layer_1-2">
		<path class="st0" d="M78.6,74.8c-14.8,5.6-28.9,5.6-42.7,0.3l9.6-39.7c-15.1,0.4-27.6,4.5-40.5,9c-0.8-2-1.5-4-2.4-6.5
			c16-6.2,31.9-10,49.1-10.2c0.2,14.7-3.2,28.3-7.3,42.4c8.3,2.5,16.2,2.4,25,0.1c-6.3-19.2-8.9-38.7-7.3-57.9l46.8-10.1
			c3,4.8,3,5.6-3.3,7.3C94.8,12.4,83.9,15,73,17.1c-3.7,0.7-4.6,2-4.6,5.4c0.1,15.8,2.8,31.6,8.1,46.5
			C77.2,70.7,77.7,72.4,78.6,74.8z"/>
	</g>
</g>
</svg>
