<svg xmlns="http://www.w3.org/2000/svg" viewBox="0 0 116.66 113.69"><defs><style>.cls-1{fill:#1374ee;stroke:#1374ee;stroke-miterlimit:10;stroke-width:4px;}</style></defs><g id="Layer_2" data-name="Layer 2"><g id="Layer_1-2" data-name="Layer 1"><path class="cls-1" d="M46.2,9.45C48.53,21.08,51,30.76,52.33,40.6a139.19,139.19,0,0,1-8,68.21c-.48,1.29-3,3-4,2.72C12.73,102.71-4,72.83,4,44.68c4.64.29,6.39,1.91,5.46,7.2C5.83,72.38,19.6,96.39,38.88,103,50,70.54,48.74,38.51,36.42,6.29,51,.55,65.13.61,80.05,6.22c-12.33,32-13.6,64.13-2.41,97.12,2.41-1.18,4.38-2,6.18-3,16.5-9.82,26.31-29.82,23.17-48.5-.86-5.09.74-6.69,5.7-7.11a50.81,50.81,0,0,1-.4,29.29c-5.2,17.56-16.55,29.62-33.34,36.82-4.2,1.8-6.06,1-7.58-3.43C61,77.12,60.07,46.69,69.32,16.08c1.41-4.68.5-6.57-4.21-6.62C58.9,9.4,52.69,9.45,46.2,9.45Z"/></g></g></svg>