<?xml version="1.0" encoding="utf-8"?>
<!-- Generator: Adobe Illustrator 25.4.6, SVG Export Plug-In . SVG Version: 6.00 Build 0)  -->
<svg version="1.1" id="Layer_1" xmlns="http://www.w3.org/2000/svg" xmlns:xlink="http://www.w3.org/1999/xlink" x="0px" y="0px"
	 viewBox="0 0 113.7 116.5" style="enable-background:new 0 0 113.7 116.5;" xml:space="preserve">
<style type="text/css">
	.st0{fill:#4EA1FF;stroke:#4EA1FF;stroke-width:4;stroke-miterlimit:10;}
</style>
<g id="Layer_2_00000011009828210948908150000005315275636801545663_">
	<g id="Layer_1-2">
		<path class="st0" d="M33.7,110.1c6.5-17,10.1-33.9,10.1-51.7c0-3.8-1-5.2-5-6c-11.2-2.2-22.3-5.1-33.5-7.8
			c-3.3-0.8-3.9-2.5-2.8-5.8C11,14.3,36.3-0.9,63.7,2.5c24.5,3,45.1,24.1,47.6,48.9c3.1,30.1-15.2,55.8-44.4,62
			C55.8,115.8,44.2,114.6,33.7,110.1z M10.7,39.9l39.4,7.6c1.8,19.4-0.9,38.8-7,57.6c20.2,9.1,49.4-5.8,58.5-29.4
			c10.1-26.3-4.4-56.1-31.3-64.6C46.2,3.6,16.1,17.5,10.7,39.9L10.7,39.9z"/>
	</g>
</g>
</svg>
