<?xml version="1.0" encoding="utf-8"?>
<!-- Generator: Adobe Illustrator 25.4.6, SVG Export Plug-In . SVG Version: 6.00 Build 0)  -->
<svg version="1.1" id="Layer_1" xmlns="http://www.w3.org/2000/svg" xmlns:xlink="http://www.w3.org/1999/xlink" x="0px" y="0px"
	 viewBox="0 0 116.4 113" style="enable-background:new 0 0 116.4 113;" xml:space="preserve">
<style type="text/css">
	.st0{fill:#4EA1FF;stroke:#4EA1FF;stroke-width:4;stroke-miterlimit:10;}
</style>
<g id="Layer_2_00000168827534562206176840000004631583470639201712_">
	<g id="Layer_1-2">
		<path class="st0" d="M103.4,37.8C96.7,23.1,85.8,14.3,71.1,9.4c0.8-2.1,1.4-3.9,2.5-6.7c4.5,2,8.9,3.4,12.8,5.8
			c19,11.5,28.9,28.6,28,50.7c-1,24-13.3,41-35.5,50.5c-5.5,2.4-5.9,2-7.3-4.7c15.4-5.2,26.9-14.9,32.8-30.4
			c3.8-9.5,4.3-20,1.3-29.8C74,54.9,42.6,55,10.7,44.7C7,58.2,9,70.4,15.6,82s16.7,18.8,29,22.8c-0.8,6.5-1.5,7-6.6,5.1
			C16.6,102,2.2,81.1,2,57.7c-0.2-23.6,14.1-44.8,35.6-53c5.6-2.1,6-1.9,7.1,4.5C24.5,19.8,16.4,27.2,13.6,38
			C43.4,48.1,73,48.1,103.4,37.8z"/>
	</g>
</g>
</svg>
