<?xml version="1.0" encoding="utf-8"?>
<!-- Generator: Adobe Illustrator 25.4.6, SVG Export Plug-In . SVG Version: 6.00 Build 0)  -->
<svg version="1.1" id="Layer_1" xmlns="http://www.w3.org/2000/svg" xmlns:xlink="http://www.w3.org/1999/xlink" x="0px" y="0px"
	 viewBox="0 0 111.4 114.7" style="enable-background:new 0 0 111.4 114.7;" xml:space="preserve">
<style type="text/css">
	.st0{fill:#4EA1FF;stroke:#4EA1FF;stroke-width:4;stroke-miterlimit:10;}
</style>
<g id="Layer_2_00000152984441716311361960000017431274635654630333_">
	<g id="Layer_1-2">
		<path class="st0" d="M2.1,70.6c11.1-2.6,22.2-5.2,33.3-7.9c1.5-0.4,2.9-0.6,4.5-0.6c3.5,0,4.3-1.8,4.3-5c0-16.4-2.8-32.6-8.4-48
			c-0.5-1.4-1-2.8-1.5-4.1c6.1-3.5,6.2-3.4,8.4,2.8c6.3,17.4,9.1,36,8.2,54.5c-0.1,1.3-0.2,2.7-0.3,4c0,0.3-0.1,0.6-0.3,0.9
			l-39.2,7.6c4,16.8,24.8,30.8,44.2,30.9c20.2,0.1,41-13.6,45.3-30.9l-39.4-7.6C59.3,45.2,62.7,23,71.1,2.5l5.7,1.8
			c-2.6,11-5.4,21.4-7.5,31.9c-1.2,6.2-1,12.6-1.8,18.8c-0.8,5.5,1.8,6.8,6.7,7.7c10.7,2.1,21.3,5,32,7.6c2.6,0.7,3.8,1.7,2.9,5
			c-6.7,21.7-29.6,37.7-53.7,37.4C30.5,112.4,8.2,95.8,2.2,73.3c0-0.3,0-0.7,0-1L2.1,70.6z"/>
	</g>
</g>
</svg>
