<?xml version="1.0" encoding="utf-8"?>
<!-- Generator: Adobe Illustrator 25.4.6, SVG Export Plug-In . SVG Version: 6.00 Build 0)  -->
<svg version="1.1" id="Layer_1" xmlns="http://www.w3.org/2000/svg" xmlns:xlink="http://www.w3.org/1999/xlink" x="0px" y="0px"
	 viewBox="0 0 114 114.2" style="enable-background:new 0 0 114 114.2;" xml:space="preserve">
<style type="text/css">
	.st0{fill:#4EA1FF;stroke:#4EA1FF;stroke-width:4;stroke-miterlimit:10;}
</style>
<g id="Layer_2_00000132067770659997696140000004340876650536486533_">
	<g id="Layer_1-2">
		<path class="st0" d="M107.1,33.9c9.6,18.2,4.5,45.3-11.3,61.2c-16.3,16.4-43.3,21.8-60.7,12.7c2.7-13.2,5.6-26.1,8-39.1
			c0.9-4.7,0.4-9.6,0.7-14.4c0.2-3-1.3-3.7-4-4.3c-11.5-2.5-23-5.3-34.4-8c-3.3-0.8-4.1-2.4-2.8-5.8C8.9,20.1,20,8.9,36.1,2.6
			c3.3-1.3,5-0.6,5.8,2.7c2.7,11.3,5.6,22.5,8,33.9c0.7,3.5,1.8,4.6,5.3,4.6C73.1,43.9,90.2,40.3,107.1,33.9z M44.5,103.6
			c18.3,3.7,34.7-0.9,47.7-15.3c11.6-12.8,15.2-27.9,11.3-43.9l-51.2,7.7C49.7,68.8,47.2,85.8,44.5,103.6z M42,43.8l1.7-1.7l-7-31.9
			C24,15.8,16,24.1,10,36.7L42,43.8z"/>
	</g>
</g>
</svg>
