<?xml version="1.0" encoding="utf-8"?>
<!-- Generator: Adobe Illustrator 25.4.6, SVG Export Plug-In . SVG Version: 6.00 Build 0)  -->
<svg version="1.1" id="Layer_1" xmlns="http://www.w3.org/2000/svg" xmlns:xlink="http://www.w3.org/1999/xlink" x="0px" y="0px"
	 viewBox="0 0 116.7 113.7" style="enable-background:new 0 0 116.7 113.7;" xml:space="preserve">
<style type="text/css">
	.st0{fill:#4EA1FF;stroke:#4EA1FF;stroke-width:4;stroke-miterlimit:10;}
</style>
<g id="Layer_2_00000146471257645281075230000015368415353324670379_">
	<g id="Layer_1-2">
		<path class="st0" d="M46.2,9.4c2.3,11.6,4.8,21.3,6.1,31.1c3.1,23,0.3,46.5-8,68.2c-0.5,1.3-3,3-4,2.7C12.7,102.7-4,72.8,4,44.7
			c4.6,0.3,6.4,1.9,5.5,7.2C5.8,72.4,19.6,96.4,38.9,103C50,70.5,48.7,38.5,36.4,6.3C51,0.6,65.1,0.6,80.1,6.2
			c-12.3,32-13.6,64.1-2.4,97.1c2.4-1.2,4.4-2,6.2-3c16.5-9.8,26.3-29.8,23.2-48.5c-0.9-5.1,0.7-6.7,5.7-7.1
			c2.7,9.6,2.6,19.8-0.4,29.3c-5.2,17.6-16.6,29.6-33.3,36.8c-4.2,1.8-6.1,1-7.6-3.4c-10.4-30.3-11.3-60.7-2-91.3
			c1.4-4.7,0.5-6.6-4.2-6.6C58.9,9.4,52.7,9.4,46.2,9.4z"/>
	</g>
</g>
</svg>
