<svg xmlns="http://www.w3.org/2000/svg" viewBox="0 0 115.22 82.55"><defs><style>.cls-1{fill:#1374ee;stroke:#1374ee;stroke-miterlimit:10;stroke-width:4px;}</style></defs><g id="Layer_2" data-name="Layer 2"><g id="Layer_1-2" data-name="Layer 1"><path class="cls-1" d="M11,11.77C8.36,20.11,8.47,28,11,36.69A153,153,0,0,1,62.13,29a145.55,145.55,0,0,1,50.6,10.45C106.27,59.2,93.86,72.69,74.09,78.11c-23.15,6.36-43.23.27-59-18C1.47,44.28-1.93,19.6,6.82,2.52c34.23,13.26,68.69,13.31,102.93,0,3.54,5.87,3.45,6.31-2.33,8.35-29.84,10.5-60,11.21-90.37,2.55C15.17,12.92,13.29,12.41,11,11.77Zm92.18,31.65c-30.07-10.09-59.68-10.09-89.46,0,4.78,16.29,24.56,29.71,43.37,30C77.43,73.73,97.35,61.05,103.19,43.42Z"/></g></g></svg>