<?xml version="1.0" encoding="utf-8"?>
<!-- Generator: Adobe Illustrator 25.4.6, SVG Export Plug-In . SVG Version: 6.00 Build 0)  -->
<svg version="1.1" id="Layer_1" xmlns="http://www.w3.org/2000/svg" xmlns:xlink="http://www.w3.org/1999/xlink" x="0px" y="0px"
	 viewBox="0 0 114.4 116.3" style="enable-background:new 0 0 114.4 116.3;" xml:space="preserve">
<style type="text/css">
	.st0{fill:#4EA1FF;stroke:#4EA1FF;stroke-width:4;stroke-miterlimit:10;}
</style>
<g id="Layer_2_00000064320496515381096630000017304319653921924482_">
	<g id="Layer_1-2">
		<path class="st0" d="M101.4,77.8C82.5,71,64,69.2,44.1,70.2C45.5,48.1,42.6,27,34.5,7c10.9-7.1,38.7-8.3,57.8,8
			c19.1,16.1,25.4,42.8,15.6,65.8c-9.8,23-32.6,35.8-59.2,33.3C27.5,112,6.5,93.8,2.3,73.6l5.8-2.4c9.6,24.7,26.8,38.2,53.3,35.9
			C79.8,105.6,92.9,95.2,101.4,77.8z M103.8,69.3c5.1-14.1-0.3-34-13.6-46.6C77.1,10.5,61.7,6.4,45,10.3c2.7,17.7,5.3,34.9,7.8,51.4
			L103.8,69.3z"/>
	</g>
</g>
</svg>
