<?xml version="1.0" encoding="utf-8"?>
<!-- Generator: Adobe Illustrator 25.4.6, SVG Export Plug-In . SVG Version: 6.00 Build 0)  -->
<svg version="1.1" id="Layer_1" xmlns="http://www.w3.org/2000/svg" xmlns:xlink="http://www.w3.org/1999/xlink" x="0px" y="0px"
	 viewBox="0 0 116.7 81.3" style="enable-background:new 0 0 116.7 81.3;" xml:space="preserve">
<style type="text/css">
	.st0{fill:#4EA1FF;stroke:#4EA1FF;stroke-width:4;stroke-miterlimit:10;}
</style>
<g id="Layer_2_00000082329322316079014050000011167712957234494353_">
	<g id="Layer_1-2">
		<path class="st0" d="M5.7,2.3l48,10.4c-0.4,8.8-0.3,18.8-1.5,28.6s-3.7,19.2-5.8,29.3c8,2.2,16.4,2.2,24.4-0.2
			c-6.2-19.3-9-38.7-7.3-57.8l47.1-10.2c5.4,13.5,5.3,27.6-0.3,42.2c-1.3-0.4-2.4-0.6-3.5-1s-1.8-0.8-2.6-1.2
			c4.1-23.5,4.1-25,1.2-31c-11,2.1-21.9,4.1-32.7,6.5c-1.2,0.3-2.6,3.1-2.6,4.8c-0.2,16.3,2.7,32.6,8.4,47.9
			c0.4,1.2,0.9,2.5,1.6,4.4c-13.7,5.7-29,5.8-42.8,0.3c2.6-10.7,5.6-20.9,7.5-31.3c1.3-7.3,1.3-14.9,1.6-22.4c0-1.3-1.4-3.6-2.5-3.8
			c-10.9-2.4-21.8-4.3-33.2-6.5c-3.4,10.3-1.5,20.6,2,31l-6.3,2.6C0.5,30.3,0.8,16,5.7,2.3z"/>
	</g>
</g>
</svg>
