<?xml version="1.0" encoding="utf-8"?>
<!-- Generator: Adobe Illustrator 25.4.6, SVG Export Plug-In . SVG Version: 6.00 Build 0)  -->
<svg version="1.1" id="Layer_1" xmlns="http://www.w3.org/2000/svg" xmlns:xlink="http://www.w3.org/1999/xlink" x="0px" y="0px"
	 viewBox="0 0 115.2 82.6" style="enable-background:new 0 0 115.2 82.6;" xml:space="preserve">
<style type="text/css">
	.st0{fill:#4EA1FF;stroke:#4EA1FF;stroke-width:4;stroke-miterlimit:10;}
</style>
<g id="Layer_2_00000042723705161317230800000006540164908828575617_">
	<g id="Layer_1-2">
		<path class="st0" d="M11,11.8C8.4,20.1,8.5,28,11,36.7c16.5-5.4,33.8-8,51.1-7.7c17.4,0.4,34.5,4,50.6,10.5
			c-6.5,19.8-18.9,33.2-38.6,38.7c-23.2,6.4-43.2,0.3-59-18C1.5,44.3-1.9,19.6,6.8,2.5c34.2,13.3,68.7,13.3,102.9,0
			c3.5,5.9,3.4,6.3-2.3,8.4c-29.8,10.5-60,11.2-90.4,2.6C15.2,12.9,13.3,12.4,11,11.8z M103.2,43.4c-30.1-10.1-59.7-10.1-89.5,0
			c4.8,16.3,24.6,29.7,43.4,30C77.4,73.7,97.3,61,103.2,43.4L103.2,43.4z"/>
	</g>
</g>
</svg>
