<svg xmlns="http://www.w3.org/2000/svg" viewBox="0 0 116.67 113.96"><defs><style>.cls-1{fill:#1374ee;stroke:#1374ee;stroke-miterlimit:10;stroke-width:4px;}</style></defs><g id="Layer_2" data-name="Layer 2"><g id="Layer_1-2" data-name="Layer 1"><path class="cls-1" d="M39.65,103.12c1.92-8.7,4-17.35,5.67-26.09,1.08-5.64.8-5.69,7.78-5-.9,5.51-1.49,11.06-2.76,16.45-1.6,6.79-3.78,13.44-5.65,20.17-.9,3.27-2.48,4.08-5.84,2.74C18.58,103.26,6.1,88.53,2.72,67.12c-4.81-30.48,14.82-57.91,44.85-64,28.56-5.8,56.91,11.7,65,40.11,7.93,27.91-7.2,57.84-34.17,67.94-3.57,1.33-5.62,1-6.62-2.9-3-11.88-6.08-23.74-9.13-35.6C70,70.78,70.11,71,71.25,76.85,73,85.61,75,94.3,76.9,103c17.55-3.38,32.16-27.45,30.56-48.9C105.67,30,84.52,9.81,60.45,9.14,34.25,8.4,13,26.57,9.27,52.8,6.38,73.37,21,98.42,39.65,103.12Z"/></g></g></svg>