<svg xmlns="http://www.w3.org/2000/svg" viewBox="0 0 112.43 79.74"><defs><style>.cls-1{fill:#1374ee;stroke:#1374ee;stroke-miterlimit:10;stroke-width:4px;}</style></defs><g id="Layer_2" data-name="Layer 2"><g id="Layer_1-2" data-name="Layer 1"><path class="cls-1" d="M2.5,8.47l2-6c7.88,2.24,15.37,5.25,23.13,6.37,12,1.73,24.11,2.39,36.2,3,3.75.2,4.82,1.12,4.73,4.85C68.31,28.28,68.5,28,80,30.47c8.6,1.82,17.11,4.16,25.56,6.63,6,1.75,6,2.16,2.79,8.3-12.42-4.22-25-8.35-39-8.92.68,13.84,4.48,26.31,8.95,38.59-5.36,3.9-6.65,3.78-8.27-2.3C67.12,62,64.59,51.19,62.47,40.28c-.75-3.84-2.25-4.81-5.85-4.8S51.7,36.54,51,40.4c-2.07,10.92-4.73,21.74-7.59,32.48-1.55,5.83-2.26,5.83-7.25,3.06,3.37-15.42,6.7-30.61,10.24-46.8,2.82-.13,6.89-.5,11-.45,3.4,0,4.2-1.57,4.21-4.61s-.47-5-4.27-5a140.16,140.16,0,0,1-49-8.25C6.47,10.15,4.68,9.35,2.5,8.47Z"/></g></g></svg>