<?xml version="1.0" encoding="utf-8"?>
<!-- Generator: Adobe Illustrator 25.4.6, SVG Export Plug-In . SVG Version: 6.00 Build 0)  -->
<svg version="1.1" id="Layer_1" xmlns="http://www.w3.org/2000/svg" xmlns:xlink="http://www.w3.org/1999/xlink" x="0px" y="0px"
	 viewBox="0 0 116.7 114" style="enable-background:new 0 0 116.7 114;" xml:space="preserve">
<style type="text/css">
	.st0{fill:#4EA1FF;stroke:#4EA1FF;stroke-width:4;stroke-miterlimit:10;}
</style>
<g id="Layer_2_00000104685020095532919990000017998581897091489983_">
	<g id="Layer_1-2">
		<path class="st0" d="M39.7,103.1c1.9-8.7,4-17.3,5.7-26.1c1.1-5.6,0.8-5.7,7.8-5c-0.9,5.5-1.5,11.1-2.8,16.4
			c-1.6,6.8-3.8,13.4-5.7,20.2c-0.9,3.3-2.5,4.1-5.8,2.7C18.6,103.3,6.1,88.5,2.7,67.1c-4.8-30.5,14.8-57.9,44.8-64
			c28.6-5.8,56.9,11.7,65,40.1c7.9,27.9-7.2,57.8-34.2,67.9c-3.6,1.3-5.6,1-6.6-2.9c-3-11.9-6.1-23.7-9.1-35.6
			c7.4-1.9,7.5-1.7,8.6,4.2C73,85.6,75,94.3,76.9,103c17.5-3.4,32.2-27.4,30.6-48.9c-1.8-24.1-22.9-44.3-47-45
			C34.2,8.4,13,26.6,9.3,52.8C6.4,73.4,21,98.4,39.7,103.1z"/>
	</g>
</g>
</svg>
