<svg xmlns="http://www.w3.org/2000/svg" viewBox="0 0 82.83 114.02"><defs><style>.cls-1{fill:#1374ee;stroke:#1374ee;stroke-miterlimit:10;stroke-width:4px;}</style></defs><g id="Layer_2" data-name="Layer 2"><g id="Layer_1-2" data-name="Layer 1"><path class="cls-1" d="M2.54,6.65C23-2.85,49,2.6,65.07,19.38,80.49,35.49,85.26,61.61,76.39,78.89L29.56,68.63a136.91,136.91,0,0,1,3.44-44c.87-3.56,2.18-7,2.79-10.61.21-1.18-.92-3.57-1.85-3.81a40.42,40.42,0,0,0-21.77.55c1.74,7.6,3.71,14.79,5,22.1a143.43,143.43,0,0,1-6.07,74.3c-2.11,6-2.15,5.95-8.46,2.81C15.84,75.68,16,41.23,2.54,6.65ZM44,14c-4.63,8.52-9.58,37-7.82,46.74.22,1.19,2.15,2.65,3.52,3,8.58,2,17.23,3.6,25.85,5.41,2,.42,4,1.06,5.93,1.59C79.64,45.75,61.69,18.75,44,14Z"/></g></g></svg>