<?xml version="1.0" encoding="utf-8"?>
<!-- Generator: Adobe Illustrator 25.4.6, SVG Export Plug-In . SVG Version: 6.00 Build 0)  -->
<svg version="1.1" id="Layer_1" xmlns="http://www.w3.org/2000/svg" xmlns:xlink="http://www.w3.org/1999/xlink" x="0px" y="0px"
	 viewBox="0 0 117 81.2" style="enable-background:new 0 0 117 81.2;" xml:space="preserve">
<style type="text/css">
	.st0{fill:#4EA1FF;stroke:#4EA1FF;stroke-width:4;stroke-miterlimit:10;}
</style>
<g id="Layer_2_00000159439620026282292960000016474093127895436218_">
	<g id="Layer_1-2">
		<path class="st0" d="M6.3,2.3l46.9,10.2v21l-39.4,7.7C17.5,57.5,38.2,71.8,57,72.1c20.7,0.4,41.8-13.2,46.3-30.9l-39.5-7.6V12.5
			l46.6-10.1c8.5,14.9,5.6,43.2-12.2,60.5c-19.5,19-49.9,21.7-72,6.2C4.6,53.8-3.9,24.9,6.3,2.3z M10.9,11.2
			c-2.1,7-2.3,14.4-0.5,21.5c0.6,1.1,1.7,1.8,3,1.9c10.3-2,20.5-4.2,30.6-6.6c1.2-0.3,2.6-2.8,2.6-4.2c0-2.1-1-5.8-2.1-6
			C33.5,15.3,22.5,13.4,10.9,11.2z M106.8,11.1c-12.1,2.3-23.3,4.4-34.4,6.7c-0.8,0.2-1.7,1.5-1.9,2.4c-1.4,5.8,0,7.7,5.8,8.6
			c2.5,0.4,5,0.6,7.4,1.1c7.4,1.6,14.8,3.4,23.2,5.3V11.1z"/>
	</g>
</g>
</svg>
