<svg xmlns="http://www.w3.org/2000/svg" viewBox="0 0 113.78 115.11"><defs><style>.cls-1{fill:#1374ee;stroke:#1374ee;stroke-miterlimit:10;stroke-width:4px;}</style></defs><g id="Layer_2" data-name="Layer 2"><g id="Layer_1-2" data-name="Layer 1"><path class="cls-1" d="M44.12,2.46c2.69,11.27,5.64,22.14,7.77,33.16A103.79,103.79,0,0,1,53.36,55c0,4.77,1.13,6.71,6.43,6.59,16.65-.39,32.73,3,48.41,8.54,2.88,1,4.37,2,3.14,5.68-9.45,28.62-44.62,45-72.56,33.64a9.64,9.64,0,0,1-1.35-.75C40.57,95.78,43.64,83.1,47,69.24c-14.94.49-27.48,4.47-39.91,8.92C-5.64,55.82,5.09,12.82,44.12,2.46ZM39,12.06C18.26,17.43,1.86,51.71,11.23,68.26c10.86-2.11,21.61-4.12,32.3-6.39,1.15-.25,2.81-1.95,2.85-3A128.32,128.32,0,0,0,39,12.06Zm63.81,64.31c-9.31-4.79-37.93-9.65-47.08-7.84-1.13.23-2.47,1.94-2.79,3.19-.81,3.21-1,6.58-1.65,9.82-1.59,7.44-3.34,14.84-5,22.23C65.49,112.06,96.54,97.1,102.85,76.37Z"/></g></g></svg>