<svg xmlns="http://www.w3.org/2000/svg" viewBox="0 0 89.67 114.18"><defs><style>.cls-1{fill:#1374ee;stroke:#1374ee;stroke-miterlimit:10;stroke-width:4px;}</style></defs><g id="Layer_2" data-name="Layer 2"><g id="Layer_1-2" data-name="Layer 1"><path class="cls-1" d="M21.72,103.35A47.15,47.15,0,0,0,58.91,98.2c11.43-6.66,18.71-16.7,22.74-29,6.71,1.23,7,1.69,4.8,7.33C75.8,104,44.72,118.65,16.71,109.42c-1.39-.46-2.71-1.13-4.11-1.72,2-6.76,4.1-13.21,5.66-19.79a6.16,6.16,0,0,0-1.78-5.2C3.6,72.77-1.06,59,4,44.85S21.6,23.11,37.91,24l3.85.26c1.83-5.89,3.55-11.74,5.49-17.52S49.58.94,55.24,4c-2.76,9.89-5.51,19.77-8.08,29-5.51-.59-11.26-2.17-16.77-1.58-11.33,1.21-19.21,9.69-21,20.92A24,24,0,0,0,23,77.85c3.82,1.79,4.34,3.8,3.4,7.28C24.79,91,23.35,97,21.72,103.35Z"/></g></g></svg>