<?xml version="1.0" encoding="utf-8"?>
<!-- Generator: Adobe Illustrator 25.4.6, SVG Export Plug-In . SVG Version: 6.00 Build 0)  -->
<svg version="1.1" id="Layer_1" xmlns="http://www.w3.org/2000/svg" xmlns:xlink="http://www.w3.org/1999/xlink" x="0px" y="0px"
	 viewBox="0 0 81.1 117.2" style="enable-background:new 0 0 81.1 117.2;" xml:space="preserve">
<style type="text/css">
	.st0{fill:#4EA1FF;stroke:#4EA1FF;stroke-width:4;stroke-miterlimit:10;}
</style>
<g id="Layer_2_00000057843233235610961530000018170014274350956443_">
	<g id="Layer_1-2">
		<path class="st0" d="M78.8,110.4c-17,10.3-47.5,3.2-63.5-15.5c-17.8-20.8-17.8-51.8,0-73.1C34.1-0.5,64.6-1.3,78.8,6.4
			C75.4,21.8,72.1,37,68.6,53c-18.8,2-38.2-1-57.5-7.1c-2.9,7.8-2.5,15.3-0.7,22.7c0.2,0.7,3.3,1.3,4.8,0.9c16-4.9,32.6-7,49.3-6.2
			c1.6,0.1,3.3,0.3,4.2,0.3C72.1,79.5,75.4,94.8,78.8,110.4z M69.9,105.7c-2.2-11.2-4.2-22.5-6.6-33.6c-0.2-0.9-2.6-1.9-3.9-1.9
			c-6.6,0.2-13.4,0.2-19.9,1.3c-8.7,1.4-17.3,3.7-26,5.7C19.9,98.8,50.6,113.7,69.9,105.7z M70.3,11.2c-21.7-8.1-51.4,8.1-56.3,28
			c12.1,4.3,24.7,6.7,37.5,7.3c11.4,0.5,11.4,0.4,13.2-10.7c0.1-0.5,0.2-1,0.3-1.5C66.8,26.6,68.5,18.9,70.3,11.2z"/>
	</g>
</g>
</svg>
