<?xml version="1.0" encoding="utf-8"?>
<!-- Generator: Adobe Illustrator 25.4.6, SVG Export Plug-In . SVG Version: 6.00 Build 0)  -->
<svg version="1.1" id="Layer_1" xmlns="http://www.w3.org/2000/svg" xmlns:xlink="http://www.w3.org/1999/xlink" x="0px" y="0px"
	 viewBox="0 0 82.8 114" style="enable-background:new 0 0 82.8 114;" xml:space="preserve">
<style type="text/css">
	.st0{fill:#4EA1FF;stroke:#4EA1FF;stroke-width:4;stroke-miterlimit:10;}
</style>
<g id="Layer_2_00000065768613863984798770000005861181381455707527_">
	<g id="Layer_1-2">
		<path class="st0" d="M2.5,6.7C23-2.8,49,2.6,65.1,19.4c15.4,16.1,20.2,42.2,11.3,59.5L29.6,68.6c-1.2-14.8-0.1-29.6,3.4-44
			c0.9-3.6,2.2-7,2.8-10.6c0.2-1.2-0.9-3.6-1.8-3.8c-7.2-1.8-14.7-1.6-21.8,0.6c1.7,7.6,3.7,14.8,5,22.1c4.6,24.9,2.5,50.5-6.1,74.3
			c-2.1,6-2.1,5.9-8.5,2.8C15.8,75.7,16,41.2,2.5,6.7z M44,14c-4.6,8.5-9.6,37-7.8,46.7c0.2,1.2,2.2,2.7,3.5,3
			c8.6,2,17.2,3.6,25.9,5.4c2,0.4,4,1.1,5.9,1.6C79.6,45.8,61.7,18.8,44,14z"/>
	</g>
</g>
</svg>
