<?xml version="1.0" encoding="utf-8"?>
<!-- Generator: Adobe Illustrator 25.4.6, SVG Export Plug-In . SVG Version: 6.00 Build 0)  -->
<svg version="1.1" id="Layer_1" xmlns="http://www.w3.org/2000/svg" xmlns:xlink="http://www.w3.org/1999/xlink" x="0px" y="0px"
	 viewBox="0 0 114 112.7" style="enable-background:new 0 0 114 112.7;" xml:space="preserve">
<style type="text/css">
	.st0{fill:#4EA1FF;stroke:#4EA1FF;stroke-width:4;stroke-miterlimit:10;}
</style>
<g id="Layer_2_00000165212165417184695580000006787925213265630889_">
	<g id="Layer_1-2">
		<path class="st0" d="M10.6,41.9c-4,15.9-0.8,30,8.7,42.6c12.9,17,29.7,21.5,58.3,15.8c0.7,1.7,1.5,3.5,2.6,6.1
			c-17.8,6.4-34.9,6.1-50.9-3.8C8.4,89.6-0.5,70.2,2.6,46c2.6-19.9,14-33.9,32.5-43.2l2.4,6.1c-16.8,12.2-21.5,17.3-24,26.1
			c32.3,11,64.2,9.8,95.9-2.3c3.8,5.5,3.6,6.2-2.3,8.3c-29.2,10.5-61,11.3-90.7,2.3C14.7,42.9,12.9,42.5,10.6,41.9z"/>
	</g>
</g>
</svg>
