<svg xmlns="http://www.w3.org/2000/svg" viewBox="0 0 57.79 112.41"><defs><style>.cls-1{fill:#1374ee;stroke:#1374ee;stroke-miterlimit:10;stroke-width:4px;}</style></defs><g id="Layer_2" data-name="Layer 2"><g id="Layer_1-2" data-name="Layer 1"><path class="cls-1" d="M12.62,4.74C18.76,2,18.85,2,20.84,7.88c1.89,5.64,3.57,11.35,5.35,17H41.78L49,2.48l6.37,1.91C52.45,14.78,49.67,24.76,47.11,34c-5.25-.73-10.4-1.65-15.58-2.1-2.7-.24-3.87,1.2-3.82,4.34q.36,20.4,0,40.81c-.06,3.21,1.28,4.56,3.87,4.34,5.2-.46,10.36-1.44,15.49-2.2,2.59,9.29,5.35,19.15,8.12,29.05-5.57,3.33-6,3.25-8-3-1.87-5.64-3.56-11.35-5.32-17H26.23C24.44,94,22.7,99.8,20.76,105.57s-2.23,5.92-8,2.64c1.86-6.31,3.65-12.67,5.65-19,.88-2.77.38-4.37-2.16-6.19C-2.71,69.47-2.74,43.76,16.14,30.17c2.5-1.81,3.13-3.35,2.23-6.15C16.36,17.72,14.58,11.35,12.62,4.74Zm7.92,72.47a116.77,116.77,0,0,0,0-40.89C5.68,45.35,5.45,66.21,20.54,77.21Z"/></g></g></svg>