<?xml version="1.0" encoding="utf-8"?>
<!-- Generator: Adobe Illustrator 25.4.6, SVG Export Plug-In . SVG Version: 6.00 Build 0)  -->
<svg version="1.1" id="Layer_1" xmlns="http://www.w3.org/2000/svg" xmlns:xlink="http://www.w3.org/1999/xlink" x="0px" y="0px"
	 viewBox="0 0 113.8 115.1" style="enable-background:new 0 0 113.8 115.1;" xml:space="preserve">
<style type="text/css">
	.st0{fill:#4EA1FF;stroke:#4EA1FF;stroke-width:4;stroke-miterlimit:10;}
</style>
<g id="Layer_2_00000006679097851508031010000013022112429957835395_">
	<g id="Layer_1-2">
		<path class="st0" d="M44.1,2.5c2.7,11.3,5.6,22.1,7.8,33.2C53,42,53.5,48.5,53.4,55c0,4.8,1.1,6.7,6.4,6.6
			c16.7-0.4,32.7,3,48.4,8.5c2.9,1,4.4,2,3.1,5.7c-9.4,28.6-44.6,45-72.6,33.6c-0.5-0.2-0.9-0.5-1.3-0.8c3.1-12.9,6.2-25.6,9.6-39.5
			c-14.9,0.5-27.5,4.5-39.9,8.9C-5.6,55.8,5.1,12.8,44.1,2.5z M39,12.1C18.3,17.4,1.9,51.7,11.2,68.3c10.9-2.1,21.6-4.1,32.3-6.4
			c1.2-0.2,2.8-2,2.8-3C46.8,42.9,44.3,27.1,39,12.1z M102.8,76.4c-9.3-4.8-37.9-9.7-47.1-7.8c-1.1,0.2-2.5,1.9-2.8,3.2
			c-0.8,3.2-1,6.6-1.7,9.8c-1.6,7.4-3.3,14.8-5,22.2C65.5,112.1,96.5,97.1,102.8,76.4L102.8,76.4z"/>
	</g>
</g>
</svg>
