<svg xmlns="http://www.w3.org/2000/svg" viewBox="0 0 116.54 114.04"><defs><style>.cls-1{fill:#1374ee;stroke:#1374ee;stroke-miterlimit:10;stroke-width:4px;}</style></defs><g id="Layer_2" data-name="Layer 2"><g id="Layer_1-2" data-name="Layer 1"><path class="cls-1" d="M3.88,71.87C-3,46.47,9.6,19,34,7.42c28.57-13.53,63.08-.8,75.72,27.95a56.43,56.43,0,0,1-30.3,75.17c-5.93,2.4-6,2.41-8.06-3.6-10.47-30-11.22-60.34-2-90.77,1.38-4.57.58-6-4.12-6.78C34,4.16,4.07,33.64,9.42,64.78,10.29,69.79,8.68,71.48,3.88,71.87Zm73.6,31.23c18.83-6.36,31.71-28.25,29.84-49.61C105.79,35.85,90.88,16,77.33,14,67.38,43.6,67.38,73.14,77.48,103.1Z"/></g></g></svg>