<svg xmlns="http://www.w3.org/2000/svg" viewBox="0 0 92.42 111.2"><defs><style>.cls-1{fill:#1374ee;stroke:#1374ee;stroke-miterlimit:10;stroke-width:4px;}</style></defs><g id="Layer_2" data-name="Layer 2"><g id="Layer_1-2" data-name="Layer 1"><path class="cls-1" d="M53.56,11c-7.44,16.13-9.23,41.75-5.19,72.46-8.77,6-23.53,5.1-33.28-2.1a32.1,32.1,0,0,1-11.43-36c5-15,16.06-21.3,38.14-21.6,1.85-5.87,3.9-11.82,5.54-17.87,1.14-4.18,3.18-4.49,6.91-3.05A57,57,0,0,1,90.42,56a56.65,56.65,0,0,1-36.28,52.12c-5.13,1.93-5.54,1.65-6.77-4.82,24.43-9.48,37.68-26.8,35.45-53.64C81.37,32.17,67.64,14.81,53.56,11ZM34,80.48c5.83,0,6.14-.8,6-6.26q-.4-18.67,0-37.35c.12-5.5-.19-6.28-5.87-6.37C20.64,30.29,8.88,42,9,55.65,9.11,69.1,20.66,80.56,34,80.48Z"/></g></g></svg>