<svg xmlns="http://www.w3.org/2000/svg" viewBox="0 0 114.46 114.28"><defs><style>.cls-1{fill:#1374ee;stroke:#1374ee;stroke-miterlimit:10;stroke-width:4px;}</style></defs><g id="Layer_2" data-name="Layer 2"><g id="Layer_1-2" data-name="Layer 1"><path class="cls-1" d="M43.51,103.71c18.69,4.15,34.56-.07,47.57-13.3,12.72-13,16.55-28.6,12.68-46.53-8.18,1.87-15.71,3.83-23.34,5.26a125.43,125.43,0,0,1-15.85,1.67c-1.13.06-3.37-1.49-3.36-2.26a128,128,0,0,1,9.9-46.29c23,4.21,42.81,31,41.26,55.11-2,31.08-24,53.37-54.11,54.85-25.93,1.26-52.1-17.69-56-40.95,10.45-4.63,21.54-7.26,32.87-9,3.62-.55,7.3-.63,10.91-1.18,4.23-.64,5.43,1.32,4.77,5.08-1.86,10.46-3.72,20.91-5.65,31.36C44.78,99.48,44.14,101.34,43.51,103.71Zm24.25-61,1.47,1.59,32.22-7c-5.86-12.82-14.1-21-26.77-26.7C72.24,21.88,70,32.28,67.76,42.67ZM37.33,101c2.33-10.79,4.56-21.17,6.79-31.55-.52-.54-1-1.09-1.55-1.64L11.11,74.69C14.41,85.78,25.68,97.14,37.33,101Z"/></g></g></svg>