<svg xmlns="http://www.w3.org/2000/svg" viewBox="0 0 116.68 81.3"><defs><style>.cls-1{fill:#1374ee;stroke:#1374ee;stroke-miterlimit:10;stroke-width:4px;}</style></defs><g id="Layer_2" data-name="Layer 2"><g id="Layer_1-2" data-name="Layer 1"><path class="cls-1" d="M5.74,2.33l48,10.43c-.42,8.82-.32,18.78-1.53,28.57S48.51,60.5,46.46,70.64a43.79,43.79,0,0,0,24.38-.21c-6.24-19.29-9-38.71-7.26-57.85L110.7,2.35c5.39,13.46,5.33,27.59-.35,42.19-1.35-.37-2.44-.61-3.48-1s-1.78-.82-2.59-1.2c4.06-23.49,4.11-25,1.21-31-11,2.11-21.91,4.06-32.74,6.48-1.2.27-2.58,3.11-2.61,4.78A134.29,134.29,0,0,0,78.5,70.52c.45,1.24.89,2.49,1.58,4.42a56.68,56.68,0,0,1-42.76.34C39.93,64.56,42.9,54.36,44.79,44c1.33-7.32,1.34-14.9,1.6-22.38,0-1.29-1.41-3.58-2.52-3.82C33,15.44,22.1,13.46,10.71,11.28c-3.41,10.29-1.51,20.57,2,31L6.41,44.85C.48,30.27.81,16,5.74,2.33Z"/></g></g></svg>