<?xml version="1.0" encoding="utf-8"?>
<!-- Generator: Adobe Illustrator 25.4.6, SVG Export Plug-In . SVG Version: 6.00 Build 0)  -->
<svg version="1.1" id="Layer_1" xmlns="http://www.w3.org/2000/svg" xmlns:xlink="http://www.w3.org/1999/xlink" x="0px" y="0px"
	 viewBox="0 0 57.8 112.4" style="enable-background:new 0 0 57.8 112.4;" xml:space="preserve">
<style type="text/css">
	.st0{fill:#4EA1FF;stroke:#4EA1FF;stroke-width:4;stroke-miterlimit:10;}
</style>
<g id="Layer_2_00000013902738759244584570000018386055155905936280_">
	<g id="Layer_1-2">
		<path class="st0" d="M12.6,4.7C18.8,2,18.9,2,20.8,7.9c1.9,5.6,3.6,11.3,5.4,17h15.6L49,2.5l6.4,1.9c-2.9,10.4-5.7,20.4-8.3,29.6
			c-5.2-0.7-10.4-1.7-15.6-2.1c-2.7-0.2-3.9,1.2-3.8,4.3c0.2,13.6,0.2,27.2,0,40.8c-0.1,3.2,1.3,4.6,3.9,4.3
			c5.2-0.5,10.4-1.4,15.5-2.2c2.6,9.3,5.3,19.2,8.1,29.1c-5.6,3.3-6,3.2-8-3c-1.9-5.6-3.6-11.3-5.3-17H26.2
			c-1.8,5.8-3.5,11.6-5.5,17.3s-2.2,5.9-8,2.6c1.9-6.3,3.6-12.7,5.6-19c0.9-2.8,0.4-4.4-2.2-6.2c-19-13.5-19-39.3-0.1-52.8
			c2.5-1.8,3.1-3.4,2.2-6.1C16.4,17.7,14.6,11.4,12.6,4.7z M20.5,77.2c2.4-13.5,2.4-27.4,0-40.9C5.7,45.3,5.4,66.2,20.5,77.2z"/>
	</g>
</g>
</svg>
