<svg xmlns="http://www.w3.org/2000/svg" viewBox="0 0 113.92 116.78"><defs><style>.cls-1{fill:#1374ee;stroke:#1374ee;stroke-miterlimit:10;stroke-width:4px;}</style></defs><g id="Layer_2" data-name="Layer 2"><g id="Layer_1-2" data-name="Layer 1"><path class="cls-1" d="M74.94,104.22l2.35,6.2c-14.58,5.64-28.87,5.9-43,.2-15-6-25.26-16.87-31.46-31.77-1.65-4-.94-5.73,3.29-7.19C36.17,61.32,66.41,60.35,97,69.21c1.87.55,3.75,1,6.14,1.68,4-17.31.39-32.17-10.82-45.11-13.45-15.52-31.58-19.72-56.22-13-.71-1.88-1.45-3.81-2.16-5.7,15.63-9.6,43.74-4.95,59.56,9.68C111.11,33.06,117.12,60.46,107,80.08c-31.6-12.18-63.6-13.4-95.89-2.52C14.45,99.13,44.38,111.65,74.94,104.22Z"/></g></g></svg>