<svg xmlns="http://www.w3.org/2000/svg" viewBox="0 0 113.9 115.31"><defs><style>.cls-1{fill:#1374ee;stroke:#1374ee;stroke-miterlimit:10;stroke-width:4px;}</style></defs><g id="Layer_2" data-name="Layer 2"><g id="Layer_1-2" data-name="Layer 1"><path class="cls-1" d="M43.07,104.65A43.92,43.92,0,0,0,68,104.6C57.17,70.34,57.5,36.8,70.8,2.65,75.17,4.52,79.38,5.89,83.18,8a56.22,56.22,0,0,1,26.47,64.66c-7.48,25.42-30.45,41.83-56.8,40.57-22.7-1.08-42.52-15.47-50.11-36.11-1.29-3.5-1.23-5.66,2.9-6.52C18.79,67.87,31.91,65,45,62.27c4.67-1,6.05,1.26,5.28,5.51q-2.8,15.43-5.64,30.86C44.35,100.41,43.75,102.13,43.07,104.65ZM75.39,12.44c-10.62,19.07-10.56,71.57,0,89.1,15-4.28,28.72-23.63,29.36-41.51C105.48,38.83,93.39,19,75.39,12.44ZM10.92,75.65c2.15,10.64,16.28,24.6,26.15,25.79,2.18-10.3,4.37-20.69,6.57-31.09L42.1,68.91Z"/></g></g></svg>