<svg xmlns="http://www.w3.org/2000/svg" viewBox="0 0 113.98 114.19"><defs><style>.cls-1{fill:#1374ee;stroke:#1374ee;stroke-miterlimit:10;stroke-width:4px;}</style></defs><g id="Layer_2" data-name="Layer 2"><g id="Layer_1-2" data-name="Layer 1"><path class="cls-1" d="M107.13,33.89c9.63,18.19,4.47,45.31-11.35,61.24-16.28,16.4-43.32,21.76-60.68,12.65,2.74-13.2,5.62-26.1,8-39.08.86-4.7.43-9.62.74-14.44.2-3-1.3-3.69-4-4.27-11.52-2.47-22.95-5.31-34.41-8-3.26-.77-4.1-2.43-2.78-5.78C8.91,20.08,20,8.93,36.1,2.62c3.31-1.29,5-.64,5.82,2.71,2.7,11.29,5.64,22.53,8,33.91.72,3.55,1.82,4.62,5.35,4.63C73.09,43.9,90.24,40.34,107.13,33.89ZM44.45,103.64c18.34,3.71,34.72-.92,47.71-15.29,11.56-12.78,15.15-27.87,11.33-43.86L52.26,52.18C49.74,68.78,47.16,85.76,44.45,103.64ZM42,43.75l1.73-1.66-7-31.93C24,15.77,16,24.11,10,36.74Z"/></g></g></svg>