<?xml version="1.0" encoding="utf-8"?>
<!-- Generator: Adobe Illustrator 25.4.6, SVG Export Plug-In . SVG Version: 6.00 Build 0)  -->
<svg version="1.1" id="Layer_1" xmlns="http://www.w3.org/2000/svg" xmlns:xlink="http://www.w3.org/1999/xlink" x="0px" y="0px"
	 viewBox="0 0 116.5 114" style="enable-background:new 0 0 116.5 114;" xml:space="preserve">
<style type="text/css">
	.st0{fill:#4EA1FF;stroke:#4EA1FF;stroke-width:4;stroke-miterlimit:10;}
</style>
<g id="Layer_2_00000009576444598044852640000010624647541107653051_">
	<g id="Layer_1-2">
		<path class="st0" d="M3.9,71.9C-3,46.5,9.6,19,34,7.4c28.6-13.5,63.1-0.8,75.7,28c12.6,28.5-0.2,61.8-28.7,74.5
			c-0.5,0.2-1.1,0.5-1.6,0.7c-5.9,2.4-6,2.4-8.1-3.6c-10.5-30-11.2-60.3-2-90.8c1.4-4.6,0.6-6-4.1-6.8C34,4.2,4.1,33.6,9.4,64.8
			C10.3,69.8,8.7,71.5,3.9,71.9z M77.5,103.1c18.8-6.4,31.7-28.2,29.8-49.6C105.8,35.8,90.9,16,77.3,14
			C67.4,43.6,67.4,73.1,77.5,103.1z"/>
	</g>
</g>
</svg>
