<?xml version="1.0" encoding="utf-8"?>
<!-- Generator: Adobe Illustrator 25.4.6, SVG Export Plug-In . SVG Version: 6.00 Build 0)  -->
<svg version="1.1" id="Layer_1" xmlns="http://www.w3.org/2000/svg" xmlns:xlink="http://www.w3.org/1999/xlink" x="0px" y="0px"
	 viewBox="0 0 113.9 116.8" style="enable-background:new 0 0 113.9 116.8;" xml:space="preserve">
<style type="text/css">
	.st0{fill:#4EA1FF;stroke:#4EA1FF;stroke-width:4;stroke-miterlimit:10;}
</style>
<g id="Layer_2_00000048463642600997372110000000686495231484845225_">
	<g id="Layer_1-2">
		<path class="st0" d="M74.9,104.2l2.3,6.2c-14.6,5.6-28.9,5.9-43,0.2c-15-6-25.3-16.9-31.5-31.8c-1.6-4-0.9-5.7,3.3-7.2
			c30-10.3,60.3-11.3,90.9-2.4c1.9,0.6,3.8,1,6.1,1.7c4-17.3,0.4-32.2-10.8-45.1c-13.4-15.5-31.6-19.7-56.2-13
			c-0.7-1.9-1.5-3.8-2.2-5.7c15.6-9.6,43.7-4.9,59.6,9.7c17.6,16.3,23.6,43.7,13.5,63.3c-31.6-12.2-63.6-13.4-95.9-2.5
			C14.4,99.1,44.4,111.7,74.9,104.2z"/>
	</g>
</g>
</svg>
