<?xml version="1.0" encoding="utf-8"?>
<!-- Generator: Adobe Illustrator 25.4.6, SVG Export Plug-In . SVG Version: 6.00 Build 0)  -->
<svg version="1.1" id="Layer_1" xmlns="http://www.w3.org/2000/svg" xmlns:xlink="http://www.w3.org/1999/xlink" x="0px" y="0px"
	 viewBox="0 0 111.2 92.1" style="enable-background:new 0 0 111.2 92.1;" xml:space="preserve">
<style type="text/css">
	.st0{fill:#4EA1FF;stroke:#4EA1FF;stroke-width:4;stroke-miterlimit:10;}
</style>
<g id="Layer_2_00000091016548563392590230000015431044225691094166_">
	<g id="Layer_1-2">
		<path class="st0" d="M87,41.5c7,2.3,13.3,4.4,19.6,6.3c2.7,0.8,3.1,2.2,2.2,4.8C102,74.6,79.3,90.4,55.2,90.1
			C30.6,89.8,8.5,73.6,2.1,51.2c-0.1-0.8-0.1-1.6,0-2.4c5.3-1.7,10.8-4,16.6-5.3c4.3-1,5.8-2.3,5.4-7.2C22.7,19.1,34.8,4.3,51,2.3
			c17.3-2.2,32.5,8.3,35.8,25.2C87.7,31.9,87,36.7,87,41.5z M33.8,47L11,52.9c4.4,16.8,25.2,30.4,45.2,30.3
			c19.3-0.1,40.1-14.1,44-30.3L77.5,47c5.1-15.7,2.9-25.8-7.2-33.1c-8.5-6.4-20.2-6.5-28.9-0.3C31.1,20.9,28.8,31,33.8,47z"/>
	</g>
</g>
</svg>
