<svg xmlns="http://www.w3.org/2000/svg" viewBox="0 0 112.29 112.32"><defs><style>.cls-1{fill:#1374ee;stroke:#1374ee;stroke-miterlimit:10;stroke-width:4px;}</style></defs><g id="Layer_2" data-name="Layer 2"><g id="Layer_1-2" data-name="Layer 1"><path class="cls-1" d="M78.08,108.14c-6.22,3.19-6.42,3.11-8.47-2.75a144.32,144.32,0,0,1-8.36-46.47c-.07-7.92-.67-8.3-8.41-6.57-1.55,12-2.77,23.89-4.72,35.66-1,6-3.14,11.9-5,17.75-1.79,5.53-2.16,5.55-7.76,2.58,2.23-8.3,5.07-16.5,6.55-24.93,1.6-9.14,1.92-18.5,2.82-27.76.3-3.1-.92-4.29-4.14-4.68C27.64,49.39,15,46.63,2.43,41.24c.64-2.13,1.23-4.09,1.94-6.41,12.9,4.34,25.45,8.55,39.38,9C43.32,30,39.14,17.4,34.9,5,41,1.66,41.58,1.6,43.14,7.51c2.92,11.07,5.52,22.26,7.72,33.5.69,3.51,2.32,3.89,5,3.77S61.26,45.42,62,41c1.78-10.13,4.21-20.16,6.56-30.19.63-2.71,1.9-5.27,3.06-8.39l5.77,1.76C74.22,17.31,71.14,30,67.78,43.77c15-.25,27.55-4.43,40-8.76,3.76,5.55,3.65,6.59-2.5,8.24-10.58,2.84-21.24,5.53-32,7.49-4.43.81-5.24,2.52-5.19,6.44a144.06,144.06,0,0,0,8.41,46.48Z"/></g></g></svg>