<svg xmlns="http://www.w3.org/2000/svg" viewBox="0 0 116.76 114.37"><defs><style>.cls-1{fill:#1374ee;stroke:#1374ee;stroke-miterlimit:10;stroke-width:4px;}</style></defs><g id="Layer_2" data-name="Layer 2"><g id="Layer_1-2" data-name="Layer 1"><path class="cls-1" d="M73.41,112c-.67-1.75-1.36-3.55-2.23-5.84,16.52-5.57,28.23-15.92,33.88-32.3a45.48,45.48,0,0,0,.85-28c-13.85,3.84-27.44,7.55-42.38,7.24-.38-14.61,3.26-28.17,7-41.58-6-3.27-16.06-3.49-24.22-.57,1.7,7.49,3.6,15,5.06,22.6.94,4.88,1.13,9.9,1.81,14.84.52,3.73-.85,5.41-4.65,4.74q-16.17-2.89-32.34-5.86c-1.6-.3-3.15-.82-4.66-1.22-10.37,19,4.74,46.14,33.2,60.09-.64,6.28-1.38,6.83-6.89,4.64C4.8,97.7-4.58,61.43,6.35,37.43L45.7,46.94c-.44-15-4.54-27.58-9.09-40.67C51.2.7,65.42.54,79.3,6,76.09,19.25,73,31.92,69.7,45.57c15-.29,27.51-4.49,40-8.77C123.44,62.11,108.51,104.18,73.41,112Z"/></g></g></svg>