<svg xmlns="http://www.w3.org/2000/svg" viewBox="0 0 111.24 92.1"><defs><style>.cls-1{fill:#1374ee;stroke:#1374ee;stroke-miterlimit:10;stroke-width:4px;}</style></defs><g id="Layer_2" data-name="Layer 2"><g id="Layer_1-2" data-name="Layer 1"><path class="cls-1" d="M87,41.55c7,2.26,13.27,4.37,19.62,6.32,2.72.84,3.08,2.21,2.24,4.85C102,74.56,79.3,90.41,55.15,90.1,30.57,89.78,8.48,73.61,2.06,51.21a12.92,12.92,0,0,1,0-2.38c5.3-1.74,10.83-4,16.57-5.3,4.28-1,5.78-2.34,5.42-7.16C22.74,19.13,34.76,4.3,51,2.28,68.3.12,83.52,10.59,86.84,27.47,87.72,31.94,87,36.72,87,41.55ZM33.79,47,11,52.9c4.39,16.79,25.2,30.41,45.21,30.29,19.34-.11,40.11-14.09,44-30.31L77.49,47c5.07-15.68,2.86-25.79-7.16-33.11a24.29,24.29,0,0,0-28.89-.26C31.09,20.91,28.77,31,33.79,47Z"/></g></g></svg>