<?xml version="1.0" encoding="utf-8"?>
<!-- Generator: Adobe Illustrator 25.4.6, SVG Export Plug-In . SVG Version: 6.00 Build 0)  -->
<svg version="1.1" id="Layer_1" xmlns="http://www.w3.org/2000/svg" xmlns:xlink="http://www.w3.org/1999/xlink" x="0px" y="0px"
	 viewBox="0 0 112.2 111.1" style="enable-background:new 0 0 112.2 111.1;" xml:space="preserve">
<style type="text/css">
	.st0{fill:#4EA1FF;stroke:#4EA1FF;stroke-width:4;stroke-miterlimit:10;}
</style>
<g id="Layer_2_00000089563872168098451020000010997264270441463443_">
	<g id="Layer_1-2">
		<path class="st0" d="M5,77.2c-3-6.4-3-6.4,3-8.5c15.4-5.5,31.6-8.3,48-8.2c3.4,0,5.6-0.4,5.7-4.8s-1.9-4.9-5.5-4.9
			c-16.5,0.1-32.9-2.8-48.4-8.4c-1.7-0.6-3.3-1.4-5.3-2.2l1.9-5.5c10.7,2.6,20.9,5.5,31.2,7.4c7.1,1.3,14.5,1.2,21.8,1.8
			c3.1,0.2,4.2-1,4.8-4.1c2.4-11.4,5.2-22.6,7.8-34c0.9-3.9,2.9-4.5,6.5-3c15.8,6.5,26.8,17.4,33,33.5c1.3,3.5,0.4,5-2.9,5.8
			c-11.5,2.7-22.9,5.7-34.4,8c-3.8,0.8-4,2.5-4,5.4s-0.1,5.1,4.1,5.9c11.4,2.2,22.7,5.2,34,7.8c3.9,0.9,4.5,2.9,3,6.6
			c-6.4,15.9-17.5,26.8-33.5,33c-3,1.2-4.7,0.7-5.5-2.5c-2.6-10.8-5.6-21.5-7.7-32.4c-0.9-4.8-2.4-6.6-7.5-6.4
			c-15.5,0.4-30.8,3.2-45.4,8.4L5,77.2z M75.4,9.9c-2.4,11.6-4.7,21.9-6.8,32.3l1.6,1.5l32-6.9C96.5,24.1,88.2,16,75.4,9.9z
			 M70.4,67.4l-1.9,1.8c2.3,10.4,4.6,20.9,7.1,32.1c12.5-6.2,20.9-14.1,26.5-26.9L70.4,67.4z"/>
	</g>
</g>
</svg>
