<svg xmlns="http://www.w3.org/2000/svg" viewBox="0 0 114.03 112.68"><defs><style>.cls-1{fill:#1374ee;stroke:#1374ee;stroke-miterlimit:10;stroke-width:4px;}</style></defs><g id="Layer_2" data-name="Layer 2"><g id="Layer_1-2" data-name="Layer 1"><path class="cls-1" d="M10.59,41.91c-4,15.93-.81,30,8.73,42.56,12.92,17,29.7,21.51,58.29,15.79.73,1.74,1.49,3.54,2.55,6.09-17.79,6.41-34.88,6.13-50.89-3.77C8.35,89.64-.53,70.21,2.62,46,5.2,26.15,16.61,12.1,35.13,2.77l2.43,6.14c-16.79,12.23-21.51,17.31-24,26.15,32.3,11,64.21,9.85,95.9-2.29,3.82,5.53,3.64,6.19-2.35,8.3A144.45,144.45,0,0,1,16.38,43.4C14.67,42.9,12.92,42.51,10.59,41.91Z"/></g></g></svg>