<svg xmlns="http://www.w3.org/2000/svg" viewBox="0 0 114.42 116.32"><defs><style>.cls-1{fill:#1374ee;stroke:#1374ee;stroke-miterlimit:10;stroke-width:4px;}</style></defs><g id="Layer_2" data-name="Layer 2"><g id="Layer_1-2" data-name="Layer 1"><path class="cls-1" d="M101.39,77.76C82.53,71,64,69.19,44.09,70.19,45.49,48.11,42.6,27,34.52,7c10.9-7.07,38.71-8.32,57.76,8a56.82,56.82,0,0,1,15.55,65.77c-9.78,23-32.6,35.84-59.18,33.33C27.55,112,6.51,93.84,2.3,73.55l5.77-2.37c9.56,24.69,26.75,38.19,53.34,35.94C79.8,105.56,92.94,95.15,101.39,77.76Zm2.36-8.49c5.14-14.06-.27-34-13.63-46.58C77.1,10.46,61.72,6.39,45,10.27q4,26.61,7.8,51.38Z"/></g></g></svg>