<?xml version="1.0" encoding="utf-8"?>
<!-- Generator: Adobe Illustrator 25.4.6, SVG Export Plug-In . SVG Version: 6.00 Build 0)  -->
<svg version="1.1" id="Layer_1" xmlns="http://www.w3.org/2000/svg" xmlns:xlink="http://www.w3.org/1999/xlink" x="0px" y="0px"
	 viewBox="0 0 114.8 111.6" style="enable-background:new 0 0 114.8 111.6;" xml:space="preserve">
<style type="text/css">
	.st0{fill:#4EA1FF;stroke:#4EA1FF;stroke-width:4;stroke-miterlimit:10;}
</style>
<g id="Layer_2_00000015316564312461412270000007138432419992523702_">
	<g id="Layer_1-2">
		<path class="st0" d="M103.7,68.3c3-8,2.9-17.9,0.1-24.2c-9.8,2-19.4,4.5-29.3,5.8c-14.5,1.9-14.1,2.9-11.9-11.6
			c1.6-10.6,4.5-21.1,7.3-31.5C71.4,1,72.3,1,77.3,4c-2.7,11.5-5.3,22.8-7.9,34.1c-0.2,1.7-0.3,3.4-0.3,5.2
			c13.7-0.4,26.2-4.5,39.3-9.1c5.9,14.4,5.8,28.6,0.1,43.5c-32-12.2-64-13.6-97.2-2.3c6.6,14.7,17.5,23.4,31.8,28.2
			c-1.3,6.8-1.7,7-7.4,4.7C20.6,102.1,10.1,91.4,4,76.2c-0.6-1.5-0.9-3.1-1.5-5.1C36,58,69.5,57.5,103.7,68.3z"/>
	</g>
</g>
</svg>
