<?xml version="1.0" encoding="utf-8"?>
<!-- Generator: Adobe Illustrator 25.4.6, SVG Export Plug-In . SVG Version: 6.00 Build 0)  -->
<svg version="1.1" id="Layer_1" xmlns="http://www.w3.org/2000/svg" xmlns:xlink="http://www.w3.org/1999/xlink" x="0px" y="0px"
	 viewBox="0 0 112.4 79.7" style="enable-background:new 0 0 112.4 79.7;" xml:space="preserve">
<style type="text/css">
	.st0{fill:#4EA1FF;stroke:#4EA1FF;stroke-width:4;stroke-miterlimit:10;}
</style>
<g id="Layer_2_00000110435914372785388950000017402627223449678987_">
	<g id="Layer_1-2">
		<path class="st0" d="M2.5,8.5l2-6c7.9,2.2,15.4,5.2,23.1,6.4c12,1.7,24.1,2.4,36.2,3c3.8,0.2,4.8,1.1,4.7,4.9
			C68.3,28.3,68.5,28,80,30.5c8.6,1.8,17.1,4.2,25.6,6.6c6,1.8,6,2.2,2.8,8.3c-12.4-4.2-25-8.4-39-8.9c0.7,13.8,4.5,26.3,8.9,38.6
			c-5.4,3.9-6.7,3.8-8.3-2.3c-2.9-10.8-5.4-21.6-7.6-32.5c-0.8-3.8-2.2-4.8-5.8-4.8s-4.9,1.1-5.6,4.9c-2.1,10.9-4.7,21.7-7.6,32.5
			c-1.5,5.8-2.3,5.8-7.2,3.1c3.4-15.4,6.7-30.6,10.2-46.8c2.8-0.1,6.9-0.5,11-0.5c3.4,0,4.2-1.6,4.2-4.6s-0.5-5-4.3-5
			c-16.7,0.2-33.3-2.6-49-8.2C6.5,10.1,4.7,9.4,2.5,8.5z"/>
	</g>
</g>
</svg>
