<svg xmlns="http://www.w3.org/2000/svg" viewBox="0 0 109.55 116.51"><defs><style>.cls-1{fill:#1374ee;stroke:#1374ee;stroke-miterlimit:10;stroke-width:4px;}</style></defs><g id="Layer_2" data-name="Layer 2"><g id="Layer_1-2" data-name="Layer 1"><path class="cls-1" d="M100.48,37.19C88.74,16.8,71.66,6.06,47.64,9.63c-17.35,2.58-29.46,12.68-37.4,29,24.49,8.6,48.72,9.79,73.67,4.95,4.33,8.91,4.65,17.76,1,26.65-.43,1.06-3.16,2-4.61,1.72A139.65,139.65,0,0,0,19,74.86c-2.69.74-5.32,1.68-8.78,2.79,8,16.45,20.39,26.1,37.8,29.26,20.43,3.7,38.75-6,52.69-28.12L106.88,81a53.38,53.38,0,0,1-22.54,25.65C54.78,124.33,15.79,111,3,79c-1.79-4.48-.87-6.22,3.68-7.79A148.91,148.91,0,0,1,74.15,64.1c1.77.22,5.15-.31,5.24-.87a35.57,35.57,0,0,0,0-10.2c-.08-.53-3.48-1-5.25-.79A149.28,149.28,0,0,1,5.74,44.75c-3.66-1.29-4.57-2.86-3-6.54C11.42,17.59,26.55,4.92,48.84,2.44,72.75-.22,91.38,9.29,104.18,29.76,107.61,35.23,107.18,35.88,100.48,37.19Z"/></g></g></svg>