<svg xmlns="http://www.w3.org/2000/svg" viewBox="0 0 116.41 112.98"><defs><style>.cls-1{fill:#1374ee;stroke:#1374ee;stroke-miterlimit:10;stroke-width:4px;}</style></defs><g id="Layer_2" data-name="Layer 2"><g id="Layer_1-2" data-name="Layer 1"><path class="cls-1" d="M103.4,37.77C96.73,23.1,85.84,14.34,71.1,9.41c.77-2.1,1.43-3.92,2.46-6.71,4.52,2,8.92,3.44,12.79,5.78,19,11.47,28.88,28.61,28,50.67-1,24-13.34,41-35.49,50.5-5.53,2.38-5.93,2-7.34-4.73C86.94,99.74,98.4,90,104.3,74.53a45.16,45.16,0,0,0,1.34-29.8C74,54.94,42.58,55,10.69,44.66,7,58.22,9,70.44,15.65,82s16.67,18.79,29,22.81c-.82,6.51-1.46,7-6.61,5.07C16.63,102,2.21,81.11,2,57.72c-.21-23.57,14.06-44.8,35.6-53,5.63-2.14,6-1.89,7.12,4.5C24.53,19.79,16.41,27.16,13.6,38,43.39,48.06,73,48.07,103.4,37.77Z"/></g></g></svg>