<svg xmlns="http://www.w3.org/2000/svg" viewBox="0 0 114.85 111.63"><defs><style>.cls-1{fill:#1374ee;stroke:#1374ee;stroke-miterlimit:10;stroke-width:4px;}</style></defs><g id="Layer_2" data-name="Layer 2"><g id="Layer_1-2" data-name="Layer 1"><path class="cls-1" d="M103.65,68.3c3-8,2.88-17.9.07-24.16-9.78,2-19.45,4.49-29.28,5.76-14.55,1.87-14.08,2.94-11.86-11.57C64.2,27.69,67.1,17.22,69.89,6.8,71.44,1,72.26,1,77.26,4,74.59,15.51,72,26.8,69.39,38.11a33.77,33.77,0,0,0-.28,5.16c13.66-.44,26.22-4.45,39.34-9.1,5.91,14.37,5.8,28.59.06,43.49-32-12.24-64-13.56-97.17-2.32C17.9,90,28.83,98.78,43.15,103.59c-1.35,6.77-1.71,7-7.41,4.71C20.64,102.1,10.05,91.36,4,76.22c-.6-1.49-.93-3.1-1.52-5.11C36,58,69.53,57.51,103.65,68.3Z"/></g></g></svg>