<?xml version="1.0" encoding="utf-8"?>
<!-- Generator: Adobe Illustrator 25.4.6, SVG Export Plug-In . SVG Version: 6.00 Build 0)  -->
<svg version="1.1" id="Layer_1" xmlns="http://www.w3.org/2000/svg" xmlns:xlink="http://www.w3.org/1999/xlink" x="0px" y="0px"
	 viewBox="0 0 112.3 112.3" style="enable-background:new 0 0 112.3 112.3;" xml:space="preserve">
<style type="text/css">
	.st0{fill:#4EA1FF;stroke:#4EA1FF;stroke-width:4;stroke-miterlimit:10;}
</style>
<g id="Layer_2_00000075154635842932610350000018304482650428272003_">
	<g id="Layer_1-2">
		<path class="st0" d="M78.1,108.1c-6.2,3.2-6.4,3.1-8.5-2.8c-5.3-14.9-8.1-30.6-8.4-46.5c-0.1-7.9-0.7-8.3-8.4-6.6
			c-1.5,12-2.8,23.9-4.7,35.7c-1,6-3.1,11.9-5,17.8c-1.8,5.5-2.2,5.6-7.8,2.6c2.2-8.3,5.1-16.5,6.5-24.9c1.6-9.1,1.9-18.5,2.8-27.8
			c0.3-3.1-0.9-4.3-4.1-4.7c-13-1.6-25.6-4.3-38.2-9.7c0.6-2.1,1.2-4.1,1.9-6.4c12.9,4.3,25.5,8.5,39.4,9C43.3,30,39.1,17.4,34.9,5
			c6.1-3.3,6.7-3.4,8.2,2.5c2.9,11.1,5.5,22.3,7.7,33.5c0.7,3.5,2.3,3.9,5,3.8s5.4,0.6,6.1-3.8c1.8-10.1,4.2-20.2,6.6-30.2
			c0.6-2.7,1.9-5.3,3.1-8.4l5.8,1.8c-3.2,13.1-6.2,25.8-9.6,39.6c15-0.2,27.6-4.4,40-8.8c3.8,5.5,3.7,6.6-2.5,8.2
			c-10.6,2.8-21.2,5.5-32,7.5c-4.4,0.8-5.2,2.5-5.2,6.4c0.2,15.9,3.1,31.6,8.4,46.5L78.1,108.1z"/>
	</g>
</g>
</svg>
