<?xml version="1.0" encoding="utf-8"?>
<!-- Generator: Adobe Illustrator 25.4.6, SVG Export Plug-In . SVG Version: 6.00 Build 0)  -->
<svg version="1.1" id="Layer_1" xmlns="http://www.w3.org/2000/svg" xmlns:xlink="http://www.w3.org/1999/xlink" x="0px" y="0px"
	 viewBox="0 0 89.7 114.2" style="enable-background:new 0 0 89.7 114.2;" xml:space="preserve">
<style type="text/css">
	.st0{fill:#4EA1FF;stroke:#4EA1FF;stroke-width:4;stroke-miterlimit:10;}
</style>
<g id="Layer_2_00000155129477314450454840000016616514194184287885_">
	<g id="Layer_1-2">
		<path class="st0" d="M21.7,103.3c12.6,3.5,26,1.6,37.2-5.2c11.4-6.7,18.7-16.7,22.7-29c6.7,1.2,7,1.7,4.8,7.3
			c-10.7,27.5-41.7,42.1-69.7,32.9c-1.4-0.5-2.7-1.1-4.1-1.7c2-6.8,4.1-13.2,5.7-19.8c0.3-1.9-0.4-3.8-1.8-5.2
			C3.6,72.8-1.1,59,4,44.8S21.6,23.1,37.9,24l3.8,0.3c1.8-5.9,3.5-11.7,5.5-17.5s2.3-5.8,8-2.7c-2.8,9.9-5.5,19.8-8.1,29
			c-5.5-0.6-11.3-2.2-16.8-1.6c-11.3,1.2-19.2,9.7-21,20.9c-1.7,10.6,3.9,21,13.6,25.5c3.8,1.8,4.3,3.8,3.4,7.3
			C24.8,91,23.4,97,21.7,103.3z"/>
	</g>
</g>
</svg>
