<svg xmlns="http://www.w3.org/2000/svg" viewBox="0 0 116.65 111.99"><defs><style>.cls-1{fill:#1374ee;stroke:#1374ee;stroke-miterlimit:10;stroke-width:4px;}</style></defs><g id="Layer_2" data-name="Layer 2"><g id="Layer_1-2" data-name="Layer 1"><path class="cls-1" d="M110,77.79C97.41,73.42,85,69.39,71.1,68.87c.41,13.89,4.57,26.43,8.82,38.85-5.94,3.35-6.69,3.33-8.21-2.47C68.9,94.5,66.36,83.66,64.16,72.77c-.73-3.64-1.86-5.11-5.7-5-3.47.14-5.06.75-5.81,4.77-2,10.92-4.7,21.75-7.57,32.49-1.62,6-2.08,6-8.28,2.77,4.29-12.4,8.41-25,8.93-39.59C38.54,69.56,32,70.47,25.68,72S13.24,75.62,7,77.48c-13.1-23.72-.33-65.87,36.1-75.12,8,18.38,10.53,37.82,10.78,57.6,7.67,2.56,9.28,1.6,9.32-5.76A143.8,143.8,0,0,1,71.9,6.31c.74-2.07,1-4.72,4.65-3.5C110.07,14.11,122.21,51.45,110,77.79ZM77.74,11.53C73.05,24.05,71,36.79,70.23,49.76c-.61,11.1-.42,11.1,10.64,12.82.65.11,1.3.29,1.94.44l22.71,5.14C113.78,48.86,98.9,18,77.74,11.53Zm-38-.29c-22.08,7.25-37,38.35-28.56,56.57,11.12-2.13,22.19-4.18,33.19-6.52,1-.2,2.16-2.4,2.13-3.64-.13-6.48-.11-13-1.11-19.4C44,29.3,41.71,20.49,39.73,11.24Z"/></g></g></svg>