<?xml version="1.0" encoding="utf-8"?>
<!-- Generator: Adobe Illustrator 25.4.6, SVG Export Plug-In . SVG Version: 6.00 Build 0)  -->
<svg version="1.1" id="Layer_1" xmlns="http://www.w3.org/2000/svg" xmlns:xlink="http://www.w3.org/1999/xlink" x="0px" y="0px"
	 viewBox="0 0 80 111.4" style="enable-background:new 0 0 80 111.4;" xml:space="preserve">
<style type="text/css">
	.st0{fill:#4EA1FF;stroke:#4EA1FF;stroke-width:4;stroke-miterlimit:10;}
</style>
<g id="Layer_2_00000101102964079883178800000014370158488901436092_">
	<g id="Layer_1-2">
		<path class="st0" d="M56,47.9c-1.3,30.4-10,39.1-39.6,39.6c-1.7,5.6-3.4,11.2-5.3,16.9c-2,6-2.1,6-8.5,3.1
			c13.3-34.3,13.4-68.9,0-103.2C8.7,0.9,8.9,1,11,6.7c7.9,22.2,10.5,45,7.1,68.3c-0.7,5,1.7,5.6,5.5,5.8
			C40.3,81.5,53.2,64.4,48,48.3c-0.5-1.7-1.3-3.4-2-5.3l30-8.4c3.2,5.5,3.2,5.9-3,8C67.3,44.5,61.6,46.1,56,47.9z"/>
	</g>
</g>
</svg>
