<?xml version="1.0" encoding="utf-8"?>
<!-- Generator: Adobe Illustrator 25.4.6, SVG Export Plug-In . SVG Version: 6.00 Build 0)  -->
<svg version="1.1" id="Layer_1" xmlns="http://www.w3.org/2000/svg" xmlns:xlink="http://www.w3.org/1999/xlink" x="0px" y="0px"
	 viewBox="0 0 92.4 111.2" style="enable-background:new 0 0 92.4 111.2;" xml:space="preserve">
<style type="text/css">
	.st0{fill:#4EA1FF;stroke:#4EA1FF;stroke-width:4;stroke-miterlimit:10;}
</style>
<g id="Layer_2_00000029025852001384613970000012711946524234300569_">
	<g id="Layer_1-2">
		<path class="st0" d="M53.6,11c-7.4,16.1-9.2,41.8-5.2,72.5c-8.8,6-23.5,5.1-33.3-2.1C3.9,73.1-0.7,58.6,3.7,45.4
			c5-15,16.1-21.3,38.1-21.6c1.8-5.9,3.9-11.8,5.5-17.9c1.1-4.2,3.2-4.5,6.9-3C76.1,11.4,90.5,32.5,90.4,56
			c-0.3,23.2-14.7,43.8-36.3,52.1c-5.1,1.9-5.5,1.7-6.8-4.8c24.4-9.5,37.7-26.8,35.5-53.6C81.4,32.2,67.6,14.8,53.6,11z M34,80.5
			c5.8,0,6.1-0.8,6-6.3c-0.3-12.4-0.3-24.9,0-37.3c0.1-5.5-0.2-6.3-5.9-6.4C20.6,30.3,8.9,42,9,55.7C9.1,69.1,20.7,80.6,34,80.5z"/>
	</g>
</g>
</svg>
