<?xml version="1.0" encoding="utf-8"?>
<!-- Generator: Adobe Illustrator 25.4.6, SVG Export Plug-In . SVG Version: 6.00 Build 0)  -->
<svg version="1.1" id="Layer_1" xmlns="http://www.w3.org/2000/svg" xmlns:xlink="http://www.w3.org/1999/xlink" x="0px" y="0px"
	 viewBox="0 0 116.7 112" style="enable-background:new 0 0 116.7 112;" xml:space="preserve">
<style type="text/css">
	.st0{fill:#4EA1FF;stroke:#4EA1FF;stroke-width:4;stroke-miterlimit:10;}
</style>
<g id="Layer_2_00000023989863603342974800000018320381710429092792_">
	<g id="Layer_1-2">
		<path class="st0" d="M110,77.8c-12.6-4.4-25-8.4-38.9-8.9c0.4,13.9,4.6,26.4,8.8,38.8c-5.9,3.3-6.7,3.3-8.2-2.5
			c-2.8-10.8-5.3-21.6-7.5-32.5c-0.7-3.6-1.9-5.1-5.7-5c-3.5,0.1-5.1,0.8-5.8,4.8c-2,10.9-4.7,21.8-7.6,32.5c-1.6,6-2.1,6-8.3,2.8
			c4.3-12.4,8.4-25,8.9-39.6C38.5,69.6,32,70.5,25.7,72S13.2,75.6,7,77.5C-6.1,53.8,6.7,11.6,43.1,2.4c8,18.4,10.5,37.8,10.8,57.6
			c7.7,2.6,9.3,1.6,9.3-5.8c0.2-16.3,3.1-32.5,8.7-47.9c0.7-2.1,1-4.7,4.7-3.5C110.1,14.1,122.2,51.5,110,77.8z M77.7,11.5
			C73.1,24,71,36.8,70.2,49.8c-0.6,11.1-0.4,11.1,10.6,12.8c0.7,0.1,1.3,0.3,1.9,0.4l22.7,5.1C113.8,48.9,98.9,18,77.7,11.5z
			 M39.7,11.2c-22.1,7.2-37,38.3-28.6,56.6c11.1-2.1,22.2-4.2,33.2-6.5c1-0.2,2.2-2.4,2.1-3.6c-0.1-6.5-0.1-13-1.1-19.4
			C44,29.3,41.7,20.5,39.7,11.2L39.7,11.2z"/>
	</g>
</g>
</svg>
