<svg xmlns="http://www.w3.org/2000/svg" viewBox="0 0 111.11 114.08"><defs><style>.cls-1{fill:#1374ee;stroke:#1374ee;stroke-miterlimit:10;stroke-width:4px;}</style></defs><g id="Layer_2" data-name="Layer 2"><g id="Layer_1-2" data-name="Layer 1"><path class="cls-1" d="M35.07,107.77c2.76-13.34,5.61-26.11,8-39,.85-4.7.44-9.63.73-14.45.18-2.89-1-3.83-3.88-4.44-11.37-2.38-22.64-5.24-34-7.83-4.22-1-4.61-3.14-3.07-6.85C9.22,19.79,20.05,9,35.54,2.7c3.67-1.48,5.26-.68,6.55,3a147.19,147.19,0,0,1,2.78,90.85c-.57,2-1.16,4.06-1.73,6,23.06,8.55,47.31-5.15,60.13-33.49,6.25.53,6.81,1.32,4.8,6.75C97.3,104.93,62,120.08,35.07,107.77Zm6.81-64.14,1.79-1.82c-2.26-10.35-4.53-20.7-7-31.86C24,15.82,15.75,24,10,36.75Z"/></g></g></svg>