<svg xmlns="http://www.w3.org/2000/svg" viewBox="0 0 113.65 116.54"><defs><style>.cls-1{fill:#1374ee;stroke:#1374ee;stroke-miterlimit:10;stroke-width:4px;}</style></defs><g id="Layer_2" data-name="Layer 2"><g id="Layer_1-2" data-name="Layer 1"><path class="cls-1" d="M33.72,110.08c6.52-17,10.08-33.94,10.11-51.65,0-3.85-1-5.24-5-6-11.23-2.17-22.32-5.13-33.46-7.79-3.32-.79-3.94-2.46-2.79-5.8C11,14.34,36.35-.85,63.68,2.45c24.48,3,45.13,24.13,47.64,48.86,3.06,30.15-15.15,55.79-44.36,62A54.19,54.19,0,0,1,33.72,110.08Zm-23-70.22,39.43,7.63c1.83,19.36-.92,38.75-7,57.63,20.2,9.12,49.41-5.81,58.45-29.41,10.09-26.34-4.36-56.09-31.35-64.56C46.25,3.62,16.14,17.52,10.74,39.86Z"/></g></g></svg>