<?xml version="1.0" encoding="utf-8"?>
<!-- Generator: Adobe Illustrator 25.4.6, SVG Export Plug-In . SVG Version: 6.00 Build 0)  -->
<svg version="1.1" id="Layer_1" xmlns="http://www.w3.org/2000/svg" xmlns:xlink="http://www.w3.org/1999/xlink" x="0px" y="0px"
	 viewBox="0 0 114.5 114.3" style="enable-background:new 0 0 114.5 114.3;" xml:space="preserve">
<style type="text/css">
	.st0{fill:#4EA1FF;stroke:#4EA1FF;stroke-width:4;stroke-miterlimit:10;}
</style>
<g id="Layer_2_00000137108113518026737970000006084424834149874561_">
	<g id="Layer_1-2">
		<path class="st0" d="M43.5,103.7c18.7,4.2,34.6-0.1,47.6-13.3c12.7-13,16.6-28.6,12.7-46.5c-8.2,1.9-15.7,3.8-23.3,5.3
			c-5.2,0.9-10.5,1.4-15.8,1.7c-1.1,0.1-3.4-1.5-3.4-2.3c0.4-15.9,3.8-31.6,9.9-46.3c23,4.2,42.8,31,41.3,55.1
			c-2,31.1-24,53.4-54.1,54.9c-25.9,1.3-52.1-17.7-56-40.9c10.4-4.6,21.5-7.3,32.9-9c3.6-0.5,7.3-0.6,10.9-1.2
			c4.2-0.6,5.4,1.3,4.8,5.1c-1.9,10.5-3.7,20.9-5.7,31.4C44.8,99.5,44.1,101.3,43.5,103.7z M67.8,42.7l1.5,1.6l32.2-7
			c-5.9-12.8-14.1-21-26.8-26.7C72.2,21.9,70,32.3,67.8,42.7L67.8,42.7z M37.3,101c2.3-10.8,4.6-21.2,6.8-31.6
			c-0.5-0.5-1-1.1-1.5-1.6l-31.5,6.9C14.4,85.8,25.7,97.1,37.3,101z"/>
	</g>
</g>
</svg>
