<?xml version="1.0" encoding="utf-8"?>
<!-- Generator: Adobe Illustrator 25.4.6, SVG Export Plug-In . SVG Version: 6.00 Build 0)  -->
<svg version="1.1" id="Layer_1" xmlns="http://www.w3.org/2000/svg" xmlns:xlink="http://www.w3.org/1999/xlink" x="0px" y="0px"
	 viewBox="0 0 116.8 114.4" style="enable-background:new 0 0 116.8 114.4;" xml:space="preserve">
<style type="text/css">
	.st0{fill:#4EA1FF;stroke:#4EA1FF;stroke-width:4;stroke-miterlimit:10;}
</style>
<g id="Layer_2_00000134247701635885422930000016850335949311869626_">
	<g id="Layer_1-2">
		<path class="st0" d="M73.4,112c-0.7-1.8-1.4-3.6-2.2-5.8c16.5-5.6,28.2-15.9,33.9-32.3c3.2-9,3.5-18.8,0.8-28
			c-13.8,3.8-27.4,7.5-42.4,7.2c-0.4-14.6,3.3-28.2,7-41.6c-6-3.3-16.1-3.5-24.2-0.6c1.7,7.5,3.6,15,5.1,22.6
			c0.9,4.9,1.1,9.9,1.8,14.8c0.5,3.7-0.8,5.4-4.7,4.7c-10.8-1.9-21.6-3.9-32.3-5.9C14.6,47,13,46.4,11.5,46
			c-10.4,19,4.7,46.1,33.2,60.1c-0.6,6.3-1.4,6.8-6.9,4.6C4.8,97.7-4.6,61.4,6.3,37.4l39.4,9.5c-0.4-15-4.5-27.6-9.1-40.7
			C51.2,0.7,65.4,0.5,79.3,6c-3.2,13.2-6.3,25.9-9.6,39.6c15-0.3,27.5-4.5,40-8.8C123.4,62.1,108.5,104.2,73.4,112z"/>
	</g>
</g>
</svg>
