<svg xmlns="http://www.w3.org/2000/svg" viewBox="0 0 81.09 117.2"><defs><style>.cls-1{fill:#1374ee;stroke:#1374ee;stroke-miterlimit:10;stroke-width:4px;}</style></defs><g id="Layer_2" data-name="Layer 2"><g id="Layer_1-2" data-name="Layer 1"><path class="cls-1" d="M78.81,110.44c-17,10.34-47.55,3.2-63.48-15.46-17.78-20.82-17.77-51.83,0-73.06C34.1-.53,64.62-1.29,78.82,6.41,75.44,21.82,72.12,37,68.61,53.05c-18.83,2-38.19-1-57.55-7.07-2.94,7.77-2.52,15.28-.74,22.74.16.67,3.33,1.32,4.78.88a146.21,146.21,0,0,1,49.31-6.2c1.64.08,3.28.27,4.23.35C72.07,79.51,75.41,94.84,78.81,110.44Zm-8.89-4.71c-2.17-11.24-4.24-22.45-6.63-33.61-.19-.89-2.57-1.9-3.9-1.86-6.64.19-13.35.21-19.89,1.26-8.73,1.41-17.32,3.71-26,5.65C19.91,98.79,50.57,113.67,69.92,105.73Zm.36-94.52C48.57,3.1,18.84,19.35,14,39.25a127.92,127.92,0,0,0,37.47,7.29c11.37.54,11.38.39,13.23-10.73.08-.49.24-1,.35-1.45Q67.66,22.77,70.28,11.21Z"/></g></g></svg>