<svg xmlns="http://www.w3.org/2000/svg" viewBox="0 0 80.22 114.04"><defs><style>.cls-1{fill:#1374ee;stroke:#1374ee;stroke-miterlimit:10;stroke-width:4px;}</style></defs><g id="Layer_2" data-name="Layer 2"><g id="Layer_1-2" data-name="Layer 1"><path class="cls-1" d="M30.3,60.1c9.42,1.53,18.89,2.83,28.26,4.66A120,120,0,0,1,73.38,69.1c5.83,2,5.84,2.19,2.94,7.56L37.08,67.14c.33,15,4.51,27.52,9,40.67-14.42,5.68-28.63,5.56-43.52.11,6.46-17,10.09-34.14,10.1-52A143.89,143.89,0,0,0,2.85,4.46C8.81.79,9,.86,11.24,7.17c10.49,30,11.15,60.27,2.18,90.75-.46,1.57-.83,3.16-1.4,5.32,8.19,2.72,16.06,2.21,24,.45l-7.68-41.6Z"/></g></g></svg>