<svg xmlns="http://www.w3.org/2000/svg" viewBox="0 0 114.29 114.01"><defs><style>.cls-1{fill:#1374ee;stroke:#1374ee;stroke-miterlimit:10;stroke-width:4px;}</style></defs><g id="Layer_2" data-name="Layer 2"><g id="Layer_1-2" data-name="Layer 1"><path class="cls-1" d="M43.68,11.4c5.74,18.81,9,38,7,57.25L3.94,78.84c-3-4.72-3-5.61,3.21-7.26,10.74-2.88,21.6-5.4,32.5-7.57,3.55-.71,4.6-1.89,4.6-5.41a137.72,137.72,0,0,0-7.9-46c-.65-1.88-1.28-3.76-2.16-6.34,3.43-1,6.66-2.19,10-2.91A56.31,56.31,0,0,1,77,110.59C71,113,70.62,112.83,69.31,106c16.36-5.51,28.13-16.08,33.59-32.77A47.25,47.25,0,0,0,100,36.32C89.55,15.32,61.76,2.91,43.68,11.4Z"/></g></g></svg>