<?xml version="1.0" encoding="utf-8"?>
<!-- Generator: Adobe Illustrator 25.4.6, SVG Export Plug-In . SVG Version: 6.00 Build 0)  -->
<svg version="1.1" id="Layer_1" xmlns="http://www.w3.org/2000/svg" xmlns:xlink="http://www.w3.org/1999/xlink" x="0px" y="0px"
	 viewBox="0 0 112.1 114" style="enable-background:new 0 0 112.1 114;" xml:space="preserve">
<style type="text/css">
	.st0{fill:#4EA1FF;stroke:#4EA1FF;stroke-width:4;stroke-miterlimit:10;}
</style>
<g id="Layer_2_00000056415225283168747180000007048272799980591756_">
	<g id="Layer_1-2">
		<path class="st0" d="M2.5,78.5l6.1-2.2c5.9,10.8,13.5,19.4,25.6,24.5C45.4,68.1,44.1,36.1,32,4.5c5.8-3.7,6.3-3.5,8.4,2.5
			c10.5,29.9,11.3,60,2.4,90.3c-0.5,1.9-1,3.8-1.5,5.6c19.3,7.8,45.6-4,56.3-24.8c10-19.6,7.7-50.2-23.3-67.4c0.7-1.9,1.3-3.8,2-5.7
			c18.3,4.7,34.8,30.4,33.7,51.7c-1.5,28.5-21.4,51.4-47.7,54.8C36.2,114.8,10,100.6,2.5,78.5z"/>
	</g>
</g>
</svg>
