<?xml version="1.0" encoding="utf-8"?>
<!-- Generator: Adobe Illustrator 25.4.6, SVG Export Plug-In . SVG Version: 6.00 Build 0)  -->
<svg version="1.1" id="Layer_1" xmlns="http://www.w3.org/2000/svg" xmlns:xlink="http://www.w3.org/1999/xlink" x="0px" y="0px"
	 viewBox="0 0 114.3 114" style="enable-background:new 0 0 114.3 114;" xml:space="preserve">
<style type="text/css">
	.st0{fill:#4EA1FF;stroke:#4EA1FF;stroke-width:4;stroke-miterlimit:10;}
</style>
<g id="Layer_2_00000028303034694799503210000004933715506519032484_">
	<g id="Layer_1-2">
		<path class="st0" d="M43.7,11.4c5.7,18.8,9,38,7,57.2L3.9,78.8c-3-4.7-3-5.6,3.2-7.3c10.7-2.9,21.6-5.4,32.5-7.6
			c3.5-0.7,4.6-1.9,4.6-5.4c0-15.7-2.7-31.2-7.9-46c-0.7-1.9-1.3-3.8-2.2-6.3c3.4-1,6.7-2.2,10-2.9C74.6-3,104.5,16.6,110.8,47
			c5.5,26.6-8.7,53.3-33.8,63.6c-6,2.4-6.4,2.2-7.7-4.6c16.4-5.5,28.1-16.1,33.6-32.8c4.1-12.2,3-25.5-2.9-36.9
			C89.6,15.3,61.8,2.9,43.7,11.4z"/>
	</g>
</g>
</svg>
