<?xml version="1.0" encoding="utf-8"?>
<!-- Generator: Adobe Illustrator 25.4.6, SVG Export Plug-In . SVG Version: 6.00 Build 0)  -->
<svg version="1.1" id="Layer_1" xmlns="http://www.w3.org/2000/svg" xmlns:xlink="http://www.w3.org/1999/xlink" x="0px" y="0px"
	 viewBox="0 0 113.9 114" style="enable-background:new 0 0 113.9 114;" xml:space="preserve">
<style type="text/css">
	.st0{fill:#4EA1FF;stroke:#4EA1FF;stroke-width:4;stroke-miterlimit:10;}
</style>
<g id="Layer_2_00000150817127108357828620000008965127413217239455_">
	<g id="Layer_1-2">
		<path class="st0" d="M8.1,45.1c-7-1.8-7-1.9-4.7-7.8C13.1,13,38.2-1.2,64.6,2.6c24.8,3.6,44.4,24.4,47,50
			c2.6,25.2-12,49.2-35.1,58.1c-5.8,2.2-5.9,2.1-7.5-4.7c15.7-5.4,27.3-15.3,33.1-31.3c3.5-9.2,3.9-19.4,1.1-28.9
			c-13.8,3.8-27.4,7.6-42.3,7.2c-0.4-14.7,3.3-28.2,7.3-42.3C54.7,7.1,42.5,9.1,31,15.8S12.1,32.4,8.1,45.1z M101.2,39.6
			c-5.9-12.9-14.1-21.1-26.1-26.4c-3.6,10.9-6.5,21.3-6.7,33.5L101.2,39.6z"/>
	</g>
</g>
</svg>
