<?xml version="1.0" encoding="utf-8"?>
<!-- Generator: Adobe Illustrator 25.4.6, SVG Export Plug-In . SVG Version: 6.00 Build 0)  -->
<svg version="1.1" id="Layer_1" xmlns="http://www.w3.org/2000/svg" xmlns:xlink="http://www.w3.org/1999/xlink" x="0px" y="0px"
	 viewBox="0 0 111.1 114.1" style="enable-background:new 0 0 111.1 114.1;" xml:space="preserve">
<style type="text/css">
	.st0{fill:#4EA1FF;stroke:#4EA1FF;stroke-width:4;stroke-miterlimit:10;}
</style>
<g id="Layer_2_00000114790780939390114530000008568226422425042329_">
	<g id="Layer_1-2">
		<path class="st0" d="M35.1,107.8c2.8-13.3,5.6-26.1,8-39c0.8-4.7,0.4-9.6,0.7-14.5c0.2-2.9-1-3.8-3.9-4.4
			c-11.4-2.4-22.6-5.2-34-7.8c-4.2-1-4.6-3.1-3.1-6.8C9.2,19.8,20,9,35.5,2.7c3.7-1.5,5.3-0.7,6.5,3c10.5,29.2,11.5,61,2.8,90.8
			c-0.6,2-1.2,4.1-1.7,6c23.1,8.6,47.3-5.2,60.1-33.5c6.2,0.5,6.8,1.3,4.8,6.8C97.3,104.9,62,120.1,35.1,107.8z M41.9,43.6l1.8-1.8
			c-2.3-10.4-4.5-20.7-7-31.9C24,15.8,15.8,24,10,36.8L41.9,43.6z"/>
	</g>
</g>
</svg>
