<?xml version="1.0" encoding="utf-8"?>
<!-- Generator: Adobe Illustrator 25.4.6, SVG Export Plug-In . SVG Version: 6.00 Build 0)  -->
<svg version="1.1" id="Layer_1" xmlns="http://www.w3.org/2000/svg" xmlns:xlink="http://www.w3.org/1999/xlink" x="0px" y="0px"
	 viewBox="0 0 113.9 115.3" style="enable-background:new 0 0 113.9 115.3;" xml:space="preserve">
<style type="text/css">
	.st0{fill:#4EA1FF;stroke:#4EA1FF;stroke-width:4;stroke-miterlimit:10;}
</style>
<g id="Layer_2_00000158007230336907085320000002888053882319327875_">
	<g id="Layer_1-2">
		<path class="st0" d="M43.1,104.7c8.1,2.4,16.8,2.4,24.9-0.1C57.2,70.3,57.5,36.8,70.8,2.7c4.4,1.9,8.6,3.2,12.4,5.3
			c22.8,12.8,33.7,39.6,26.5,64.7c-7.5,25.4-30.5,41.8-56.8,40.6c-22.7-1.1-42.5-15.5-50.1-36.1c-1.3-3.5-1.2-5.7,2.9-6.5
			C18.8,67.9,31.9,65,45,62.3c4.7-1,6,1.3,5.3,5.5c-1.9,10.3-3.7,20.6-5.6,30.9C44.3,100.4,43.8,102.1,43.1,104.7z M75.4,12.4
			c-10.6,19.1-10.6,71.6,0,89.1c15-4.3,28.7-23.6,29.4-41.5C105.5,38.8,93.4,19,75.4,12.4z M10.9,75.7c2.1,10.6,16.3,24.6,26.1,25.8
			c2.2-10.3,4.4-20.7,6.6-31.1l-1.5-1.4L10.9,75.7z"/>
	</g>
</g>
</svg>
