<svg xmlns="http://www.w3.org/2000/svg" viewBox="0 0 113.93 114.02"><defs><style>.cls-1{fill:#1374ee;stroke:#1374ee;stroke-miterlimit:10;stroke-width:4px;}</style></defs><g id="Layer_2" data-name="Layer 2"><g id="Layer_1-2" data-name="Layer 1"><path class="cls-1" d="M8.08,45.1c-7-1.75-7-1.86-4.69-7.77C13.08,13,38.19-1.22,64.62,2.62c24.85,3.61,44.39,24.41,47,50,2.58,25.17-12,49.2-35.14,58.07-5.79,2.21-5.94,2.13-7.52-4.65,15.7-5.36,27.34-15.32,33.13-31.27a45.7,45.7,0,0,0,1.12-28.87c-13.84,3.77-27.42,7.57-42.34,7.18-.4-14.65,3.27-28.22,7.28-42.26C54.71,7.09,42.49,9.13,31,15.76S12.12,32.4,8.08,45.1Zm93.16-5.53C95.31,26.72,87.15,18.49,75.11,13.15c-3.57,10.94-6.5,21.26-6.7,33.52Z"/></g></g></svg>