<svg xmlns="http://www.w3.org/2000/svg" viewBox="0 0 112.06 113.98"><defs><style>.cls-1{fill:#1374ee;stroke:#1374ee;stroke-miterlimit:10;stroke-width:4px;}</style></defs><g id="Layer_2" data-name="Layer 2"><g id="Layer_1-2" data-name="Layer 1"><path class="cls-1" d="M2.53,78.53l6.06-2.15c5.85,10.8,13.51,19.44,25.61,24.51C45.36,68.08,44.09,36.13,32,4.46,37.76.78,38.32.93,40.44,7q15.72,44.78,2.43,90.34c-.54,1.87-1,3.75-1.55,5.56,19.27,7.76,45.61-4,56.27-24.79,10-19.58,7.68-50.24-23.31-67.43.65-1.86,1.32-3.79,2-5.67C94.57,9.67,111.12,35.38,110,56.72c-1.48,28.53-21.45,51.44-47.73,54.78C36.24,114.81,10,100.62,2.53,78.53Z"/></g></g></svg>