<svg xmlns="http://www.w3.org/2000/svg" viewBox="0 0 111.4 114.73"><defs><style>.cls-1{fill:#0070f3;stroke:#0070f3;stroke-miterlimit:10;stroke-width:4px;}</style></defs><g id="Layer_2" data-name="Layer 2"><g id="Layer_1-2" data-name="Layer 1"><path class="cls-1" d="M2.07,70.58q16.65-3.93,33.3-7.86a20.3,20.3,0,0,1,4.45-.61c3.5,0,4.33-1.76,4.35-5A140.67,140.67,0,0,0,35.75,9.12c-.49-1.38-1-2.76-1.47-4.08,6.12-3.46,6.17-3.43,8.43,2.83A141.49,141.49,0,0,1,50.9,62.35q-.09,2-.3,4a2.85,2.85,0,0,1-.3.91L11.12,74.86c4,16.82,24.78,30.85,44.21,30.92,20.2.07,41-13.58,45.3-30.93L61.18,67.22A140.51,140.51,0,0,1,71.09,2.46l5.68,1.78c-2.61,11-5.41,21.35-7.46,31.9-1.2,6.16-1,12.6-1.81,18.85-.77,5.54,1.85,6.77,6.74,7.71,10.74,2.06,21.32,5,32,7.59,2.64.65,3.84,1.74,2.86,5C102.44,96.94,79.54,113,55.37,112.72,30.55,112.41,8.18,95.85,2.16,73.34a4.16,4.16,0,0,1,0-1Z"/></g></g></svg>