<svg xmlns="http://www.w3.org/2000/svg" viewBox="0 0 80.02 111.37"><defs><style>.cls-1{fill:#0070f3;stroke:#0070f3;stroke-miterlimit:10;stroke-width:4px;}</style></defs><g id="Layer_2" data-name="Layer 2"><g id="Layer_1-2" data-name="Layer 1"><path class="cls-1" d="M56,47.87C54.65,78.29,46,86.93,16.36,87.5c-1.74,5.56-3.41,11.25-5.31,16.88-2,6-2.12,6-8.51,3.07,13.27-34.31,13.38-68.87,0-103.2C8.72.9,8.93,1,11,6.69c7.85,22.19,10.48,45,7.11,68.28-.73,5,1.74,5.63,5.48,5.79,16.74.73,29.59-16.37,24.37-32.49-.55-1.73-1.29-3.41-2-5.34l30-8.38c3.25,5.55,3.18,5.93-3,8C67.3,44.45,61.59,46.13,56,47.87Z"/></g></g></svg>