<svg xmlns="http://www.w3.org/2000/svg" viewBox="0 0 117.02 81.17"><defs><style>.cls-1{fill:#0070f3;stroke:#0070f3;stroke-miterlimit:10;stroke-width:4px;}</style></defs><g id="Layer_2" data-name="Layer 2"><g id="Layer_1-2" data-name="Layer 1"><path class="cls-1" d="M6.3,2.3,53.23,12.53v21L13.83,41.2C17.46,57.47,38.23,71.8,57,72.14c20.67.37,41.76-13.17,46.32-30.93L63.84,33.57V12.48L110.46,2.39c8.46,14.86,5.57,43.19-12.18,60.53-19.46,19-49.87,21.7-72,6.15C4.57,53.85-3.91,24.88,6.3,2.3Zm4.57,8.88a40.4,40.4,0,0,0-.48,21.54,3.65,3.65,0,0,0,3,1.92C23.65,32.63,33.86,30.48,44,28c1.19-.29,2.63-2.75,2.6-4.17-.05-2.1-1-5.75-2.13-6C33.54,15.32,22.47,13.39,10.87,11.18Zm95.9-.11c-12.08,2.3-23.27,4.4-34.43,6.66-.8.16-1.72,1.47-1.94,2.39-1.38,5.75,0,7.71,5.79,8.62,2.46.39,5,.58,7.37,1.11,7.41,1.62,14.79,3.36,23.21,5.29Z"/></g></g></svg>