<svg xmlns="http://www.w3.org/2000/svg" viewBox="0 0 112.24 111.12"><defs><style>.cls-1{fill:#0070f3;stroke:#0070f3;stroke-miterlimit:10;stroke-width:4px;}</style></defs><g id="Layer_2" data-name="Layer 2"><g id="Layer_1-2" data-name="Layer 1"><path class="cls-1" d="M5,77.19c-3-6.39-3-6.41,3-8.53a139.58,139.58,0,0,1,48-8.25c3.44,0,5.62-.41,5.66-4.76s-1.88-4.94-5.45-4.93A139.71,139.71,0,0,1,7.77,42.29c-1.67-.61-3.3-1.37-5.26-2.19l1.94-5.53C15.12,37.16,25.32,40.08,35.7,42c7.14,1.32,14.55,1.2,21.84,1.8,3.07.25,4.16-.95,4.81-4.08,2.36-11.37,5.21-22.64,7.81-34,.91-3.92,2.9-4.48,6.5-3,15.8,6.47,26.85,17.44,33,33.45,1.33,3.46.4,5-2.86,5.75-11.46,2.71-22.88,5.7-34.43,8-3.77.75-4,2.51-4,5.4s-.13,5.08,4.06,5.87c11.4,2.16,22.65,5.15,34,7.79,3.86.9,4.52,2.9,3,6.55-6.4,15.87-17.5,26.82-33.46,33-3,1.16-4.71.73-5.5-2.52-2.59-10.81-5.58-21.54-7.7-32.44-.92-4.79-2.36-6.59-7.5-6.44A149.6,149.6,0,0,0,9.85,75.49ZM75.43,9.92C73,21.49,70.78,31.85,68.58,42.22l1.6,1.5,32-6.93C96.5,24.09,88.2,16,75.43,9.92Zm-5,57.44L68.5,69.14C70.82,79.57,73.14,90,75.64,101.2,88.15,95,96.56,87.07,102.1,74.34Z"/></g></g></svg>