<svg id="alien-name" xmlns="http://www.w3.org/2000/svg" width="101" height="20" viewBox="0 0 101 20">
  <defs>
    <style>
      .cls-1 {
        fill: #42dbf1;
        stroke: #6bd4f2;
        stroke-linejoin: round;
        stroke-width: 1px;
        fill-rule: evenodd;
      }
    </style>
  </defs>
  <path class="cls-1" d="M989.878,349.232c0.22-1,.46-2,0.651-3,0.124-.648.092-0.654,0.894-0.581-0.1.634-.171,1.271-0.317,1.891-0.184.78-.435,1.545-0.649,2.318a0.418,0.418,0,0,1-.671.315,6.273,6.273,0,0,1-4.152-5.083,6.47,6.47,0,0,1,12.622-2.746,6.5,6.5,0,0,1-3.927,7.808c-0.41.153-.645,0.119-0.76-0.334-0.345-1.365-.7-2.728-1.05-4.091,0.844-.216.859-0.189,0.99,0.481,0.2,1.007.431,2.007,0.649,3.006,2.017-.389,3.695-3.155,3.512-5.621a5.672,5.672,0,0,0-11.284-.148C986.054,345.812,987.736,348.691,989.878,349.232Z" transform="translate(-982 -334)"/>
  <path class="cls-1" d="M1004,338c0.71-.318.72-0.321,0.95,0.361,0.22,0.649.41,1.305,0.61,1.958h1.79c0.27-.825.54-1.671,0.83-2.579,0.28,0.085.51,0.152,0.73,0.22-0.33,1.194-.65,2.341-0.94,3.4-0.61-.085-1.2-0.19-1.79-0.242-0.31-.027-0.45.138-0.44,0.5q0.045,2.344,0,4.691c-0.01.368,0.15,0.524,0.44,0.5,0.6-.052,1.19-0.165,1.78-0.252,0.3,1.067.62,2.2,0.93,3.338-0.63.383-.68,0.373-0.92-0.339-0.21-.648-0.4-1.3-0.61-1.954h-1.79c-0.21.654-.41,1.325-0.63,1.989s-0.26.681-.93,0.3c0.22-.726.42-1.458,0.65-2.181a0.541,0.541,0,0,0-.24-0.712,3.646,3.646,0,0,1-.01-6.078,0.541,0.541,0,0,0,.26-0.706C1004.43,339.49,1004.23,338.757,1004,338Zm0.91,8.329a13.487,13.487,0,0,0,.01-4.7A2.783,2.783,0,0,0,1004.91,346.327Z" transform="translate(-982 -334)"/>
  <path class="cls-1" d="M1042.24,338.133a6.444,6.444,0,0,1,7.19,1.462,6.343,6.343,0,0,1,1.3,6.835l-5.39-1.178a15.619,15.619,0,0,1,.4-5.059c0.1-.408.25-0.805,0.32-1.218a0.533,0.533,0,0,0-.21-0.437,4.67,4.67,0,0,0-2.51.063c0.2,0.873.43,1.7,0.58,2.538a16.415,16.415,0,0,1-.7,8.533c-0.24.685-.24,0.683-0.97,0.322A15.9,15.9,0,0,0,1042.24,338.133Zm4.76,0.839a13.421,13.421,0,0,0-.9,5.367,0.618,0.618,0,0,0,.41.341c0.98,0.225,1.98.413,2.97,0.62,0.23,0.049.46,0.123,0.68,0.183C1051.1,342.624,1049.04,339.523,1047,338.972Z" transform="translate(-982 -334)"/>
  <path class="cls-1" d="M1037.93,346.182a16.533,16.533,0,0,0-6.59-.87,16.366,16.366,0,0,0-1.1-7.259c1.25-.811,4.45-0.955,6.64.912a6.469,6.469,0,0,1-5.01,11.38,6.353,6.353,0,0,1-5.33-4.647q0.315-.127.66-0.271c1.1,2.835,3.08,4.385,6.13,4.126A5.452,5.452,0,0,0,1037.93,346.182Zm0.27-.974a5.328,5.328,0,0,0-1.57-5.349,5.431,5.431,0,0,0-5.18-1.427c0.31,2.038.6,4.006,0.89,5.9Z" transform="translate(-982 -334)"/>
  <path class="cls-1" d="M1062.35,349.881c-0.72.365-.74,0.357-0.98-0.316a16.724,16.724,0,0,1-.96-5.336c-0.01-.909-0.07-0.952-0.96-0.754-0.18,1.379-.32,2.743-0.55,4.095a13.459,13.459,0,0,1-.58,2.037c-0.2.636-.24,0.638-0.89,0.3,0.26-.953.59-1.894,0.76-2.863,0.18-1.049.22-2.124,0.32-3.187a0.437,0.437,0,0,0-.48-0.537,15.761,15.761,0,0,1-4.38-1.117c0.07-.244.14-0.469,0.22-0.736a15.79,15.79,0,0,0,4.53,1.035,15.094,15.094,0,0,0-1.02-4.464c0.7-.379.77-0.386,0.95,0.292,0.34,1.272.64,2.556,0.89,3.846a0.458,0.458,0,0,0,.58.433c0.31-.014.61,0.074,0.7-0.429,0.21-1.163.49-2.314,0.76-3.466a8.664,8.664,0,0,1,.35-0.963c0.26,0.08.49,0.148,0.66,0.2-0.36,1.5-.72,2.956-1.11,4.541a14.262,14.262,0,0,0,4.6-1.007c0.43,0.638.42,0.758-.29,0.947-1.21.326-2.44,0.635-3.68,0.86a0.6,0.6,0,0,0-.59.739,16.449,16.449,0,0,0,.96,5.337C1062.22,349.527,1062.28,349.688,1062.35,349.881Z" transform="translate(-982 -334)"/>
  <path class="cls-1" d="M1019.83,338.785c-0.85,1.852-1.06,4.794-.59,8.321a3.517,3.517,0,0,1-3.82-.241,3.686,3.686,0,0,1-1.31-4.141c0.57-1.721,1.84-2.445,4.37-2.479,0.22-.675.45-1.358,0.64-2.053,0.13-.48.36-0.515,0.79-0.351a6.483,6.483,0,0,1-.01,12.1c-0.59.222-.64,0.189-0.78-0.553,2.81-1.089,4.33-3.077,4.07-6.161A5.3,5.3,0,0,0,1019.83,338.785Zm-2.24,7.979c0.67,0,.71-0.092.69-0.718q-0.045-2.145,0-4.29c0.01-.631-0.02-0.721-0.67-0.731A2.87,2.87,0,1,0,1017.59,346.764Z" transform="translate(-982 -334)"/>
  <path class="cls-1" d="M1072.1,349.263a5.681,5.681,0,0,0,6.92-6.865c-0.94.214-1.81,0.438-2.68,0.6a14.037,14.037,0,0,1-1.82.191,0.506,0.506,0,0,1-.39-0.259,14.655,14.655,0,0,1,1.14-5.311,6.424,6.424,0,0,1-1.48,12.617c-2.97.145-5.98-2.029-6.43-4.7a14.661,14.661,0,0,1,3.78-1.028c0.41-.063.83-0.072,1.25-0.135,0.48-.073.62,0.151,0.55,0.583-0.22,1.2-.43,2.4-0.65,3.6C1072.25,348.778,1072.17,348.991,1072.1,349.263Zm2.78-7c0.06,0.061.12,0.121,0.17,0.182,1.21-.262,2.41-0.524,3.7-0.806a5.785,5.785,0,0,0-3.07-3.064C1075.4,339.873,1075.14,341.066,1074.88,342.259Zm-3.49,6.7c0.27-1.238.53-2.43,0.78-3.621l-0.18-.188-3.61.784A5.041,5.041,0,0,0,1071.39,348.957Z" transform="translate(-982 -334)"/>
</svg>
