<?xml version="1.0" encoding="utf-8"?>
<!-- Generator: Adobe Illustrator 25.4.6, SVG Export Plug-In . SVG Version: 6.00 Build 0)  -->
<svg version="1.1" id="Layer_1" xmlns="http://www.w3.org/2000/svg" xmlns:xlink="http://www.w3.org/1999/xlink" x="0px" y="0px"
	 viewBox="0 0 100 100" style="enable-background:new 0 0 100 100;" xml:space="preserve">
<style type="text/css">
	.st0{display:none;opacity:5.000000e-02;fill-rule:evenodd;clip-rule:evenodd;fill:#6CADF7;enable-background:new    ;}
	.st1{opacity:0.25;fill-rule:evenodd;clip-rule:evenodd;fill:#6CADF7;}
</style>
<path class="st0" d="M96,95h4v1h-4v4h-1v-4h-9v4h-1v-4h-9v4h-1v-4h-9v4h-1v-4h-9v4h-1v-4h-9v4h-1v-4h-9v4h-1v-4h-9v4h-1v-4h-9v4h-1
	v-4H0v-1h15v-9H0v-1h15v-9H0v-1h15v-9H0v-1h15v-9H0v-1h15v-9H0v-1h15v-9H0v-1h15v-9H0v-1h15v-9H0v-1h15V0h1v15h9V0h1v15h9V0h1v15h9
	V0h1v15h9V0h1v15h9V0h1v15h9V0h1v15h9V0h1v15h9V0h1v15h4v1h-4v9h4v1h-4v9h4v1h-4v9h4v1h-4v9h4v1h-4v9h4v1h-4v9h4v1h-4v9h4v1h-4V95z
	 M95,95v-9h-9v9H95z M85,95v-9h-9v9H85z M75,95v-9h-9v9H75z M65,95v-9h-9v9H65z M55,95v-9h-9v9H55z M45,95v-9h-9v9H45z M35,95v-9h-9
	v9H35z M25,95v-9h-9v9H25z M16,85h9v-9h-9V85z M26,85h9v-9h-9V85z M36,85h9v-9h-9V85z M46,85h9v-9h-9V85z M56,85h9v-9h-9V85z M66,85
	h9v-9h-9V85z M76,85h9v-9h-9V85z M86,85h9v-9h-9V85z M95,75v-9h-9v9H95z M85,75v-9h-9v9H85z M75,75v-9h-9v9H75z M65,75v-9h-9v9H65z
	 M55,75v-9h-9v9H55z M45,75v-9h-9v9H45z M35,75v-9h-9v9H35z M25,75v-9h-9v9H25z M16,65h9v-9h-9V65z M26,65h9v-9h-9V65z M36,65h9v-9
	h-9V65z M46,65h9v-9h-9V65z M56,65h9v-9h-9V65z M66,65h9v-9h-9V65z M76,65h9v-9h-9V65z M86,65h9v-9h-9V65z M95,55v-9h-9v9H95z
	 M85,55v-9h-9v9H85z M75,55v-9h-9v9H75z M65,55v-9h-9v9H65z M55,55v-9h-9v9H55z M45,55v-9h-9v9H45z M35,55v-9h-9v9H35z M25,55v-9h-9
	v9H25z M16,45h9v-9h-9V45z M26,45h9v-9h-9V45z M36,45h9v-9h-9V45z M46,45h9v-9h-9V45z M56,45h9v-9h-9V45z M66,45h9v-9h-9V45z M76,45
	h9v-9h-9V45z M86,45h9v-9h-9V45z M95,35v-9h-9v9H95z M85,35v-9h-9v9H85z M75,35v-9h-9v9H75z M65,35v-9h-9v9H65z M55,35v-9h-9v9H55z
	 M45,35v-9h-9v9H45z M35,35v-9h-9v9H35z M25,35v-9h-9v9H25z M16,25h9v-9h-9V25z M26,25h9v-9h-9V25z M36,25h9v-9h-9V25z M46,25h9v-9
	h-9V25z M56,25h9v-9h-9V25z M66,25h9v-9h-9V25z M76,25h9v-9h-9V25z M86,25h9v-9h-9V25z"/>
<path class="st1" d="M6,5V0H5v5H0v1h5v94h1V6h94V5H6z"/>
</svg>
