<svg xmlns="http://www.w3.org/2000/svg" viewBox="0 0 103.91 104"><defs><style>.cls-1{fill:#53d5f4;}.cls-2{fill:none;}</style></defs><g id="Layer_2" data-name="Layer 2"><g id="Layer_1-2" data-name="Layer 1"><path class="cls-1" d="M17.05,22.51A45.27,45.27,0,0,0,6.2,51.9a44.81,44.81,0,0,0,3.33,17l1.15-.53A43.57,43.57,0,0,1,7.46,51.9,44,44,0,0,1,17.93,23.41Z"/><path class="cls-1" d="M87,24.48l-.27.22A44.13,44.13,0,0,1,96.1,51.9c0,.91,0,1.89-.13,3l1.24.23c.1-1.21.15-2.27.15-3.25a45.38,45.38,0,0,0-9.71-28Z"/><path class="cls-1" d="M24.8,86.9l-.85.92A45.51,45.51,0,0,0,90.11,76.4L89,75.8A44.26,44.26,0,0,1,24.8,86.9Z"/><path class="cls-2" d="M1.26,58.88,0,58.86A52.25,52.25,0,0,0,30.58,99.59l.18-.46.29-.7A51.05,51.05,0,0,1,1.26,58.88Z"/><path class="cls-2" d="M54.72,104A51.93,51.93,0,0,0,89.84,87.7L89,86.81a50.6,50.6,0,0,1-34.23,15.94Z"/><path class="cls-2" d="M15.59,14.4A52,52,0,0,0,1.35,38.16l1.24.28A50.74,50.74,0,0,1,16.46,15.29Z"/><path class="cls-2" d="M47,1.25V0A52.44,52.44,0,0,0,25,7.19l.88.9A51.28,51.28,0,0,1,47,1.25Z"/><path class="cls-2" d="M84.75,11.44l-.36.71-.22.44a51,51,0,0,1,18.48,34.7h1.26A52.16,52.16,0,0,0,84.75,11.44Z"/><path class="cls-2" d="M58.79.24V1.5A50.9,50.9,0,0,1,74.22,6.21l.14-.29.42-.83A51.75,51.75,0,0,0,58.79.24Z"/></g></g></svg>