<?xml version="1.0" encoding="utf-8"?>
<!-- Generator: Adobe Illustrator 25.4.6, SVG Export Plug-In . SVG Version: 6.00 Build 0)  -->
<svg version="1.1" id="Layer_1" xmlns="http://www.w3.org/2000/svg" xmlns:xlink="http://www.w3.org/1999/xlink" x="0px" y="0px"
	 viewBox="0 0 265 95" style="enable-background:new 0 0 265 95;" xml:space="preserve">
<path d="M0,94V1h50.9c2.9,16.2,5.8,32.1,8.6,48c3.8-14.8,6.7-29.4,9.2-44.1c0.6-3.7,2.2-4.5,5.5-4.4c9.8,0.2,19.6,0,29.5,0H119V95
	H88V53.1L86.6,53c-3.2,14-6.4,28-9.6,42H43c-3.3-13.3-6.6-26.7-9.9-40l-1.2,0.2V94H0z"/>
<path d="M233,95h-58c-0.1-2.3-0.3-4.6-0.3-6.9c0-25.1,0-50.1,0-75.2c0-4.3,0.2-8.6,0.3-12.9h60c1.6,0.4,3.2,0.8,4.8,1.1
	c11.8,1.8,20.1,8.6,21,18.1c1.5,16.4-2.4,21.7-15,25.7c-0.3,0.1-0.4,0.5-0.8,0.9c10.5,2,17.6,7.6,20,18.2v6
	c-2.5,13.6-11.2,20.8-24.4,23.3C238.1,93.8,235.5,94.4,233,95z M210.6,56.9c0,5.4-0.1,10.5,0.1,15.6c0,0.8,1.3,2.2,2,2.2
	c3.8-0.2,7.7-0.1,11.2-1.2c4.2-1.4,4.9-5.5,4.6-9.5s-2.7-6.5-6.6-6.9C218.5,56.6,215,56.9,210.6,56.9z M210.4,38
	c5.8-0.3,11.9,1.7,15-4c1.4-2.5,1.4-7.4-0.2-9.6c-3.5-5.1-9.4-3.2-14.8-3.1V38z"/>
<path d="M166,95h-38V0h38c-0.1,9.1-0.3,18.2-0.2,27.4C165.8,49.9,165.9,72.4,166,95z"/>
</svg>
