<svg xmlns="http://www.w3.org/2000/svg" viewBox="0 0 125.21 499"><defs><style>.cls-1{fill:#00080c;fill-rule:evenodd;}.cls-2{fill:#53d5f4;}</style></defs><g id="Layer_2" data-name="Layer 2"><g id="Layer_1-2" data-name="Layer 1"><polygon class="cls-1" points="11.03 496.5 2.96 496.16 2.96 17.89 2.56 2.5 83.84 2.5 97.7 21.06 99.74 42.02 122.71 58.96 122.71 496.15 113.14 496.5 11.03 496.5"/><path class="cls-2" d="M85.15,7.5l12.7,17,1.86,19.16.21,2.22,1.8,1.32,21.06,15.52V496.24l-7.12.26h-102L8,496.26v-476L7.69,7.5H85.15m2.51-5H2.56L3,20.39V501.06l10.52.44H115.75l12-.44V60.19l-23.09-17-2-20.54L87.66,2.5Z" transform="translate(-2.56 -2.5)"/></g></g></svg>