<svg xmlns="http://www.w3.org/2000/svg" viewBox="0 0 103.91 104"><defs><style>.cls-1{fill:#53d5f4;}</style></defs><g id="Layer_2" data-name="Layer 2"><g id="Layer_1-2" data-name="Layer 1"><path class="cls-1" d="M1.26,58.88,0,58.86A52.25,52.25,0,0,0,30.58,99.59l.18-.46.29-.7A51.05,51.05,0,0,1,1.26,58.88Z"/><path class="cls-1" d="M54.72,104A51.93,51.93,0,0,0,89.84,87.7L89,86.81a50.6,50.6,0,0,1-34.23,15.94Z"/><path class="cls-1" d="M15.59,14.4A52,52,0,0,0,1.35,38.16l1.24.28A50.74,50.74,0,0,1,16.46,15.29Z"/><path class="cls-1" d="M47,1.25V0A52.44,52.44,0,0,0,25,7.19l.88.9A51.28,51.28,0,0,1,47,1.25Z"/><path class="cls-1" d="M84.75,11.44l-.36.71-.22.44a51,51,0,0,1,18.48,34.7h1.26A52.16,52.16,0,0,0,84.75,11.44Z"/><path class="cls-1" d="M58.79.24V1.5A50.9,50.9,0,0,1,74.22,6.21l.14-.29.42-.83A51.75,51.75,0,0,0,58.79.24Z"/></g></g></svg>