<svg xmlns="http://www.w3.org/2000/svg" width="20.938" height="15.124" viewBox="0 0 20.938 15.124">
  <defs>
    <style>
      .cls-1 {
        fill: #42dbf1;
        fill-rule: evenodd;
      }
    </style>
  </defs>
  <path id="rotate-icon" class="cls-1" d="M576.711,706.687v1.37a0.758,0.758,0,0,0,1.275.559l2.531-2.377a1.418,1.418,0,0,0,0-2.067l-2.531-2.38a0.754,0.754,0,0,0-.82-0.141,0.762,0.762,0,0,0-.455.7v1.689c-3.172-.52-5.559-2.084-5.559-3.779,0-1.873,3.227-3.95,7.848-3.95s7.848,2.087,7.848,3.95c0,1.017-.948,2.084-2.534,2.851a1.321,1.321,0,0,0-.087,2.177,1.3,1.3,0,0,0,1.212.183c2.557-1.231,4.025-3.131,4.025-5.211,0-3.687-4.578-6.584-10.464-6.584s-10.464,2.9-10.464,6.584c0,3.19,3.378,5.781,8.175,6.426h0Z" transform="translate(-568.531 -693.688)"/>
</svg>
