<svg xmlns="http://www.w3.org/2000/svg" viewBox="0 0 110.13 112.32"><defs><style>.cls-1{fill:#0070f3;}</style></defs><g id="Layer_2" data-name="Layer 2"><g id="Layer_1-2" data-name="Layer 1"><path class="cls-1" d="M99.09,75.76C80.23,69,61.66,67.19,41.79,68.19,43.2,46.11,40.3,25,32.23,5c10.89-7.07,38.7-8.32,57.75,8a56.82,56.82,0,0,1,15.55,65.77c-9.77,23-32.59,35.84-59.18,33.33C25.26,110,4.21,91.84,0,71.55l5.78-2.37c9.56,24.69,26.74,38.19,53.34,35.94C77.5,103.56,90.64,93.15,99.09,75.76Zm2.36-8.49c5.14-14.06-.26-34-13.62-46.58C74.8,8.46,59.43,4.39,42.7,8.27q4,26.61,7.8,51.38Z"/></g></g></svg>