<svg xmlns="http://www.w3.org/2000/svg" viewBox="0 0 107.33 110.27"><defs><style>.cls-1{fill:#0070f3;}</style></defs><g id="Layer_2" data-name="Layer 2"><g id="Layer_1-2" data-name="Layer 1"><path class="cls-1" d="M0,68.12q16.65-3.95,33.3-7.86a19.7,19.7,0,0,1,4.44-.61c3.51,0,4.34-1.76,4.35-5a140.52,140.52,0,0,0-8.41-48c-.49-1.38-1-2.75-1.47-4.07,6.12-3.46,6.17-3.44,8.43,2.83a141.49,141.49,0,0,1,8.19,54.48c-.06,1.33-.16,2.66-.3,4a2.85,2.85,0,0,1-.3.92L9.05,72.4C13,89.22,33.83,103.25,53.26,103.32c20.2.07,41-13.59,45.29-30.93L59.11,64.76A140.51,140.51,0,0,1,69,0L74.7,1.78c-2.61,11-5.41,21.35-7.46,31.89-1.2,6.17-.95,12.61-1.81,18.86-.77,5.54,1.85,6.77,6.74,7.7,10.74,2.07,21.32,5,32,7.6,2.64.64,3.84,1.74,2.86,5-6.63,21.7-29.53,37.79-53.69,37.48C28.48,110,6.11,93.39.09,70.88a4.17,4.17,0,0,1,0-1Z"/></g></g></svg>