<svg xmlns="http://www.w3.org/2000/svg" viewBox="0 0 109.93 110.02"><defs><style>.cls-1{fill:#0070f3;}</style></defs><g id="Layer_2" data-name="Layer 2"><g id="Layer_1-2" data-name="Layer 1"><path class="cls-1" d="M6.08,43.1c-7-1.75-7-1.86-4.69-7.77C11.08,11,36.19-3.22,62.62.62c24.85,3.61,44.39,24.41,47,50,2.58,25.17-12,49.2-35.14,58.07-5.79,2.21-5.94,2.13-7.52-4.65,15.7-5.36,27.34-15.32,33.13-31.27a45.7,45.7,0,0,0,1.12-28.87c-13.84,3.77-27.42,7.57-42.34,7.18-.4-14.65,3.27-28.22,7.28-42.26C52.71,5.09,40.49,7.13,29,13.76S10.12,30.4,6.08,43.1Zm93.16-5.53C93.31,24.72,85.15,16.49,73.11,11.15c-3.57,10.94-6.5,21.26-6.7,33.52Z"/></g></g></svg>