<svg xmlns="http://www.w3.org/2000/svg" viewBox="0 0 53.34 107.93"><defs><style>.cls-1{fill:#0070f3;}</style></defs><g id="Layer_2" data-name="Layer 2"><g id="Layer_1-2" data-name="Layer 1"><path class="cls-1" d="M10.62,2.26c6.14-2.77,6.23-2.8,8.22,3.14,1.89,5.64,3.57,11.35,5.35,17H39.78L47,0l6.37,1.91C50.45,12.3,47.67,22.28,45.11,31.5c-5.25-.73-10.4-1.65-15.58-2.1-2.7-.24-3.87,1.2-3.82,4.34q.36,20.4,0,40.81c-.06,3.21,1.28,4.56,3.87,4.34,5.2-.46,10.36-1.44,15.49-2.2,2.59,9.29,5.35,19.14,8.12,29.05-5.57,3.33-6,3.25-8-2.95-1.87-5.64-3.56-11.35-5.32-17H24.23c-1.79,5.68-3.53,11.52-5.47,17.3s-2.23,5.92-8,2.64c1.86-6.31,3.65-12.67,5.65-19,.88-2.77.38-4.37-2.16-6.19C-4.71,67-4.74,41.28,14.14,27.68c2.5-1.8,3.13-3.34,2.23-6.14C14.36,15.24,12.58,8.87,10.62,2.26Zm7.92,72.47a116.77,116.77,0,0,0,0-40.89C3.68,42.87,3.45,63.73,18.54,74.73Z"/></g></g></svg>