<svg xmlns="http://www.w3.org/2000/svg" viewBox="0 0 112.76 110.04"><defs><style>.cls-1{fill:#0070f3;}</style></defs><g id="Layer_2" data-name="Layer 2"><g id="Layer_1-2" data-name="Layer 1"><path class="cls-1" d="M71.41,110c-.67-1.75-1.36-3.55-2.23-5.84,16.52-5.57,28.23-15.92,33.88-32.3a45.48,45.48,0,0,0,.85-28c-13.85,3.84-27.44,7.55-42.38,7.24-.38-14.61,3.26-28.17,7-41.58-6-3.27-16.06-3.49-24.22-.57,1.7,7.49,3.6,15,5.06,22.6.94,4.88,1.13,9.9,1.81,14.84.52,3.73-.85,5.41-4.65,4.74q-16.17-2.89-32.34-5.86c-1.6-.3-3.15-.82-4.66-1.22-10.37,19,4.74,46.14,33.2,60.09-.64,6.28-1.38,6.83-6.89,4.64C2.8,95.7-6.58,59.43,4.35,35.43L43.7,44.94c-.44-15-4.54-27.58-9.09-40.67C49.2-1.3,63.42-1.46,77.3,4,74.09,17.25,71,29.92,67.7,43.57c15-.29,27.51-4.49,40-8.77C121.44,60.11,106.51,102.18,71.41,110Z"/></g></g></svg>