<svg xmlns="http://www.w3.org/2000/svg" viewBox="0 0 75.48 107.37"><defs><style>.cls-1{fill:#0070f3;}</style></defs><g id="Layer_2" data-name="Layer 2"><g id="Layer_1-2" data-name="Layer 1"><path class="cls-1" d="M53.48,45.87c-1.38,30.42-10,39.06-39.67,39.63-1.73,5.56-3.41,11.25-5.3,16.88-2,6-2.13,6-8.51,3.07C13.27,71.14,13.37,36.58,0,2.25,6.18-1.1,6.39-1,8.42,4.69c7.85,22.19,10.48,45,7.1,68.28-.72,5,1.75,5.63,5.48,5.79,16.74.73,29.6-16.37,24.38-32.49-.56-1.73-1.3-3.41-2-5.34l30-8.38c3.24,5.55,3.17,5.93-3,8C64.75,42.45,59.05,44.13,53.48,45.87Z"/></g></g></svg>