<svg xmlns="http://www.w3.org/2000/svg" viewBox="0 0 112.41 108.28"><defs><style>.cls-1{fill:#0070f3;}</style></defs><g id="Layer_2" data-name="Layer 2"><g id="Layer_1-2" data-name="Layer 1"><path class="cls-1" d="M101.4,35.08C94.73,20.4,83.84,11.65,69.1,6.71L71.56,0c4.52,2,8.92,3.45,12.79,5.78,19,11.47,28.88,28.61,28,50.67-1,24-13.34,41-35.49,50.5-5.53,2.38-5.93,2-7.34-4.73C84.94,97,96.4,87.32,102.3,71.83A45.13,45.13,0,0,0,103.64,42C72,52.24,40.58,52.34,8.69,42,5,55.52,7,67.74,13.65,79.29s16.67,18.79,29,22.81c-.82,6.51-1.46,7-6.61,5.07C14.63,99.25.21,78.41,0,55-.21,31.46,14.06,10.22,35.6,2c5.63-2.14,6-1.9,7.12,4.49C22.53,17.09,14.41,24.47,11.6,35.3,41.39,45.36,71,45.37,101.4,35.08Z"/></g></g></svg>