<svg xmlns="http://www.w3.org/2000/svg" viewBox="0 0 113.02 76.87"><defs><style>.cls-1{fill:#0070f3;}</style></defs><g id="Layer_2" data-name="Layer 2"><g id="Layer_1-2" data-name="Layer 1"><path class="cls-1" d="M4.3,0,51.23,10.23v21L11.83,38.9C15.46,55.17,36.23,69.5,55,69.84c20.67.37,41.76-13.16,46.32-30.93L61.84,31.27V10.18L108.46.09C116.92,15,114,43.28,96.28,60.62c-19.46,19-49.87,21.7-72,6.15C2.57,51.55-5.91,22.58,4.3,0ZM8.87,8.89a40.36,40.36,0,0,0-.48,21.53,3.65,3.65,0,0,0,3,1.92c10.23-2,20.44-4.15,30.58-6.62,1.19-.29,2.63-2.75,2.6-4.17-.05-2.1-1-5.75-2.13-6C31.54,13,20.47,11.09,8.87,8.89Zm95.9-.12c-12.08,2.31-23.27,4.4-34.43,6.66-.8.16-1.72,1.47-1.94,2.4-1.38,5.74,0,7.7,5.79,8.61,2.46.39,5,.58,7.37,1.11,7.41,1.62,14.79,3.36,23.21,5.29Z"/></g></g></svg>