<svg xmlns="http://www.w3.org/2000/svg" viewBox="0 0 107.73 107.12"><defs><style>.cls-1{fill:#0070f3;}</style></defs><g id="Layer_2" data-name="Layer 2"><g id="Layer_1-2" data-name="Layer 1"><path class="cls-1" d="M2.49,75.19c-3-6.39-3-6.41,3-8.53a139.57,139.57,0,0,1,48-8.25c3.45,0,5.63-.41,5.67-4.76s-1.88-4.94-5.45-4.93A139.71,139.71,0,0,1,5.26,40.29C3.59,39.68,2,38.92,0,38.1.79,35.85,1.43,34,1.93,32.57,12.61,35.16,22.81,38.08,33.18,40c7.15,1.32,14.56,1.2,21.85,1.8,3.07.25,4.16-.95,4.81-4.08,2.36-11.37,5.21-22.64,7.81-34,.9-3.92,2.9-4.48,6.5-3C90,7.22,101,18.19,107.15,34.2c1.33,3.46.4,5-2.86,5.75-11.47,2.71-22.88,5.7-34.43,8-3.77.75-4,2.51-4,5.4s-.13,5.08,4.05,5.87c11.41,2.16,22.66,5.15,34,7.79,3.86.9,4.52,2.9,3,6.55-6.4,15.87-17.5,26.82-33.46,33-3,1.16-4.72.73-5.5-2.52-2.6-10.81-5.58-21.54-7.7-32.44-.93-4.79-2.36-6.59-7.5-6.44A149.72,149.72,0,0,0,7.33,73.49ZM72.92,7.92c-2.45,11.57-4.65,21.93-6.85,32.3l1.6,1.5,32-6.93C94,22.09,85.69,14,72.92,7.92Zm-5,57.44L66,67.14C68.31,77.57,70.63,88,73.13,99.2,85.64,93,94.05,85.07,99.59,72.34Z"/></g></g></svg>